<?xml version="1.0" encoding="UTF-8" standalone="no"?>
<!-- Created with Inkscape (http://www.inkscape.org/) -->

<svg
  xmlns:dc="http://purl.org/dc/elements/1.1/"
  xmlns:cc="http://creativecommons.org/ns#"
  xmlns:rdf="http://www.w3.org/1999/02/22-rdf-syntax-ns#"
  xmlns:sodipodi="http://sodipodi.sourceforge.net/DTD/sodipodi-0.dtd"
  xmlns:inkscape="http://www.inkscape.org/namespaces/inkscape"
  xmlns="http://www.w3.org/2000/svg"
  width="134.61401mm"
  height="102.08102mm"
  viewBox="0 0 134.61401 102.08102"
  version="1.1"
  id="svg8"
  inkscape:version="0.92.3 (2405546, 2018-03-11)"
  sodipodi:docname="teacher-and-students.svg">
  <defs
    id="defs2"/>
  <sodipodi:namedview
    id="base"
    pagecolor="#ffffff"
    bordercolor="#666666"
    borderopacity="1.0"
    inkscape:pageopacity="0.0"
    inkscape:pageshadow="2"
    inkscape:zoom="1.7436364"
    inkscape:cx="213.16829"
    inkscape:cy="255.88265"
    inkscape:document-units="mm"
    inkscape:current-layer="layer1"
    showgrid="false"
    inkscape:snap-global="false"
    fit-margin-top="0"
    fit-margin-left="0"
    fit-margin-right="0"
    fit-margin-bottom="0"
    inkscape:window-width="1866"
    inkscape:window-height="989"
    inkscape:window-x="25"
    inkscape:window-y="1144"
    inkscape:window-maximized="0"/>
  <metadata
    id="metadata5">
    <rdf:RDF>
      <cc:Work
        rdf:about="">
        <dc:format>image/svg+xml</dc:format>
        <dc:type
          rdf:resource="http://purl.org/dc/dcmitype/StillImage"/>
        <dc:title></dc:title>
      </cc:Work>
    </rdf:RDF>
  </metadata>
  <g
    inkscape:label="Camada 1"
    inkscape:groupmode="layer"
    id="layer1"
    transform="translate(128.97221,-74.767106)">
    <g
      style="fill:none"
      id="g1594"
      transform="matrix(0.26458333,0,0,0.26458333,-129.23364,74.60464)">
      <g
        id="Group 2 Copy">
        <path
          d="m 313.039,153.742 c 0,6.88 -29.002,12.457 -64.778,12.457 -35.776,0 -64.778,-5.577 -64.778,-12.457 0,-6.881 29.002,-12.458 64.778,-12.458 35.776,0 64.778,5.577 64.778,12.458 z"
          id="Fill 1 Copy"
          inkscape:connector-curvature="0"
          style="clip-rule:evenodd;fill:#e5e5e5;fill-rule:evenodd"/>
        <g
          id="Group">
          <g
            id="Group 28">
            <path
              d="m 258.791,111.603 c 0,0 2.012,13.496 14.713,16.176 11.464,2.42 15.335,-10.145 15.335,-10.145 0,0 3.212,4.517 9.994,-0.732 l -13.923,-7.351 c 0,0 -8.012,14.165 -12.089,-3.049 z"
              id="Fill 1-3"
              inkscape:connector-curvature="0"
              style="clip-rule:evenodd;fill:#2c6698;fill-rule:evenodd"/>
            <path
              d="m 272.821,106.502 -14.03,5.101 c 0,0 0.779,5.212 4.416,9.801 0,0 4.082,-0.772 11.975,-8.545 -0.848,-1.343 -1.654,-3.372 -2.361,-6.357 z"
              id="Fill 3-6"
              inkscape:connector-curvature="0"
              style="clip-rule:evenodd;fill:#285987;fill-rule:evenodd"/>
            <path
              d="m 225.948,106.999 c 0,0 12.815,30.458 24.323,39.626 0,0 -6.289,4.98 -6.623,9.486 l 20.743,-4.897 c 0,0 -16.737,-34.498 -18.854,-46.814 z"
              id="Fill 5-7"
              inkscape:connector-curvature="0"
              style="clip-rule:evenodd;fill:#2c6698;fill-rule:evenodd"/>
            <path
              d="m 245.537,104.4 -19.589,2.599 c 0,0 4.211,10.002 9.97,20.267 4.421,0.477 10.845,0.353 16.791,-1.975 -3.365,-8.095 -6.356,-16.142 -7.172,-20.891 z"
              id="Fill 7-5"
              inkscape:connector-curvature="0"
              style="clip-rule:evenodd;fill:#285987;fill-rule:evenodd"/>
            <path
              d="m 215.927,23.5505 c 0,0 -24.597,10.9239 -19.545,42.5606 0,0 -4.268,12.2219 -12.808,16.026 0,0 5.028,3.3634 9.345,2.344 0,0 14.34,23.4309 22.943,26.7629 0,0 1.413,6.655 0.321,10.976 0,0 9.045,1.765 13.257,-3.13 0,0 30.82,6.538 50.066,-16.046 0,0 6.212,2.109 9.474,-0.612 0,0 -4.205,-4.6955 -4.037,-8.7977 0,0 6.076,-9.3984 4.852,-24.874 -1.223,-15.4759 -11.587,-32.4997 -17.161,-40.1548 -8.685,-11.9265 -32.497,-12.8056 -44.303,-9.0428 0,0 -15.347,-7.7531 -17.491,-2.3715 0,0 -2.272,3.4677 5.087,6.3593 z"
              id="Fill 9-3"
              inkscape:connector-curvature="0"
              style="clip-rule:evenodd;fill:#52b9ca;fill-rule:evenodd"/>
            <path
              d="m 228.745,113.403 c 9.973,4.309 20.803,-4.261 20.803,-4.261 l -1.242,7.125 6.759,-5.827 -1.211,4.511 c 12.56,-2.64 18.829,-18.0972 18.829,-18.0972 3.115,2.8401 8.865,1.4826 8.865,1.4826 -2.851,-1.9274 -4.88,-8.5994 -4.88,-8.5994 9.951,-5.6649 11.284,-21.3072 10.944,-31.9103 1.102,3.637 1.898,7.3263 2.183,10.9334 1.224,15.4759 -4.852,24.874 -4.852,24.874 -0.168,4.1025 4.038,8.7979 4.038,8.7979 -3.263,2.721 -9.475,0.612 -9.475,0.612 -19.246,22.584 -50.066,16.046 -50.066,16.046 -3.919,4.554 -12.012,3.345 -13.121,3.154 7.08,-3.952 12.426,-8.841 12.426,-8.841 z"
              id="Fill 11-5"
              inkscape:connector-curvature="0"
              style="clip-rule:evenodd;fill:#499ebc;fill-rule:evenodd"/>
            <path
              d="m 183.891,82.3337 c 5.819,-0.764 11.147,-2.6504 11.147,-2.6504 3.287,9.0658 18.539,21.9157 18.539,21.9157 2.233,6.678 2.285,9.645 2.285,9.645 -8.603,-3.332 -22.943,-26.7629 -22.943,-26.7629 -3.698,0.8734 -7.894,-1.4577 -9.028,-2.1474 z"
              id="Fill 13-6"
              inkscape:connector-curvature="0"
              style="clip-rule:evenodd;fill:#499ebc;fill-rule:evenodd"/>
            <path
              d="m 281.111,42.3167 c 0,0 6.501,15.51 18.758,12.6162 0,0 -8.11,17.5889 -24.592,16.9299 z"
              id="Fill 15-2"
              inkscape:connector-curvature="0"
              style="clip-rule:evenodd;fill:#52b9ca;fill-rule:evenodd"/>
            <path
              d="m 275.277,71.8629 1.361,-6.8964 c 16.89,-1.3471 23.23,-10.0335 23.23,-10.0335 0,0 -8.109,17.5889 -24.591,16.9299 z"
              id="Fill 17-9"
              inkscape:connector-curvature="0"
              style="clip-rule:evenodd;fill:#499ebc;fill-rule:evenodd"/>
            <path
              d="m 244.542,33.9558 c -2.003,-8.4575 -10.494,-13.6922 -18.965,-11.6923 -8.471,1.9999 -13.715,10.4776 -11.711,18.9351 2.003,8.4579 10.494,13.6926 18.965,11.6924 8.471,-2.0002 13.714,-10.4776 11.711,-18.9352 z"
              id="Fill 19-1"
              inkscape:connector-curvature="0"
              style="clip-rule:evenodd;fill:#499ebc;fill-rule:evenodd"/>
            <path
              d="m 245.744,35.6919 c -2.004,-8.4576 -10.495,-13.6923 -18.966,-11.6927 -8.471,2.0002 -13.714,10.4779 -11.711,18.9354 2.003,8.4576 10.494,13.6923 18.965,11.6924 8.472,-2.0002 13.715,-10.4776 11.712,-18.9351 z"
              id="Fill 21-2"
              inkscape:connector-curvature="0"
              style="clip-rule:evenodd;fill:#ffffff;fill-rule:evenodd"/>
            <path
              d="m 228.331,19.5626 c 8.703,-2.7734 23.914,-3.007 34.796,1.8294 1.184,4.0593 2.751,9.9619 2.7,12.6127 0,0 -26.082,4.4243 -37.496,-14.4421 z"
              id="Fill 23"
              inkscape:connector-curvature="0"
              style="clip-rule:evenodd;fill:#499ebc;fill-rule:evenodd"/>
            <g
              id="Group 27">
              <mask
                height="30"
                width="38"
                y="0"
                x="225"
                maskUnits="userSpaceOnUse"
                mask-type="alpha"
                id="mask0-7">
                <path
                  d="m 225.201,0.764862 h 36.855 V 29.3284 h -36.855 z"
                  id="Clip 26"
                  inkscape:connector-curvature="0"
                  style="clip-rule:evenodd;fill:#ffffff;fill-rule:evenodd"/>
              </mask>
              <g
                id="g1392"
                mask="url(#mask0-7)">
                <path
                  d="m 226.996,21.9724 c 10.81,9.6032 28.628,7.3865 33.926,6.4608 0.83,-0.1453 1.327,-0.9781 1.063,-1.779 -1.128,-3.4318 -4.199,-11.9379 -8.083,-15.8806 -4.931,-5.0046 -8.544,-3.37632 -11.95,-1.66041 -3.406,1.71591 -11.618,8.44141 -11.618,8.44141 0,0 2.4,-4.551 7.171,-10.74074 4.77,-6.189732 -2.324,-7.250982 -5.639,-4.88925 -3.316,2.36142 -8.238,7.93022 -6.176,16.82179 z"
                  id="Fill 25-0"
                  inkscape:connector-curvature="0"
                  style="clip-rule:evenodd;fill:#52b9ca;fill-rule:evenodd"/>
              </g>
            </g>
          </g>
          <g
            id="Group 38-9">
            <g
              id="Group 31">
              <mask
                height="33"
                width="33"
                y="23"
                x="214"
                maskUnits="userSpaceOnUse"
                mask-type="alpha"
                id="mask1-3">
                <path
                  d="m 215.018,35.9075 c -1.884,8.485 3.478,16.8883 11.976,18.769 8.499,1.8811 16.915,-3.4727 18.799,-11.9577 1.884,-8.485 -3.478,-16.8883 -11.976,-18.7687 -1.149,-0.2541 -2.297,-0.3764 -3.426,-0.3764 -7.229,-6e-4 -13.744,4.9955 -15.373,12.3338 z"
                  id="Clip 30"
                  inkscape:connector-curvature="0"
                  style="clip-rule:evenodd;fill:#ffffff;fill-rule:evenodd"/>
              </mask>
              <g
                id="g1399"
                mask="url(#mask1-3)">
                <path
                  d="m 241.859,45.0617 c 0.944,-4.2541 -1.744,-8.4673 -6.005,-9.4103 -4.261,-0.9434 -8.481,1.7411 -9.425,5.9952 -0.945,4.2542 1.744,8.4673 6.005,9.4104 4.26,0.943 8.48,-1.7411 9.425,-5.9953 z"
                  id="Fill 29-6"
                  inkscape:connector-curvature="0"
                  style="clip-rule:evenodd;fill:#1e74bb;fill-rule:evenodd"/>
              </g>
            </g>
            <g
              id="Group 34">
              <mask
                height="33"
                width="33"
                y="23"
                x="214"
                maskUnits="userSpaceOnUse"
                mask-type="alpha"
                id="mask2-0">
                <path
                  d="m 215.018,35.9075 c -1.884,8.485 3.478,16.8883 11.976,18.769 8.499,1.8811 16.915,-3.4727 18.799,-11.9577 1.884,-8.485 -3.478,-16.8883 -11.976,-18.7687 -1.149,-0.2541 -2.297,-0.3764 -3.426,-0.3764 -7.229,-6e-4 -13.744,4.9955 -15.373,12.3338 z"
                  id="Clip 33"
                  inkscape:connector-curvature="0"
                  style="clip-rule:evenodd;fill:#ffffff;fill-rule:evenodd"/>
              </mask>
              <g
                id="g1405"
                mask="url(#mask2-0)">
                <path
                  d="m 240.306,44.7178 c 0.755,-3.3977 -1.393,-6.763 -4.796,-7.5163 -3.404,-0.753 -6.774,1.3906 -7.529,4.789 -0.754,3.3978 1.393,6.7631 4.797,7.5161 3.403,0.7533 6.774,-1.3907 7.528,-4.7888 z"
                  id="Fill 32"
                  inkscape:connector-curvature="0"
                  style="clip-rule:evenodd;fill:#231e20;fill-rule:evenodd"/>
              </g>
            </g>
            <g
              id="Group 37">
              <mask
                height="33"
                width="33"
                y="23"
                x="214"
                maskUnits="userSpaceOnUse"
                mask-type="alpha"
                id="mask3-6">
                <path
                  d="m 215.018,35.9075 c -1.884,8.485 3.478,16.8883 11.976,18.769 8.499,1.8811 16.915,-3.4727 18.799,-11.9577 1.884,-8.485 -3.478,-16.8883 -11.976,-18.7687 -1.149,-0.2541 -2.297,-0.3764 -3.426,-0.3764 -7.229,-6e-4 -13.744,4.9955 -15.373,12.3338 z"
                  id="Clip 36"
                  inkscape:connector-curvature="0"
                  style="clip-rule:evenodd;fill:#ffffff;fill-rule:evenodd"/>
              </mask>
              <g
                id="g1411"
                mask="url(#mask3-6)">
                <path
                  d="m 242.668,50.0884 c 0.414,-1.8681 -0.766,-3.7176 -2.637,-4.1318 -1.871,-0.4142 -3.723,0.7643 -4.138,2.6322 -0.415,1.8681 0.766,3.7176 2.636,4.1321 1.871,0.4139 3.724,-0.7646 4.139,-2.6325 z"
                  id="Fill 35"
                  inkscape:connector-curvature="0"
                  style="clip-rule:evenodd;fill:#ffffff;fill-rule:evenodd"/>
              </g>
            </g>
          </g>
          <g
            id="Group 77-2">
            <path
              d="m 234.023,19.132 c 0.301,0.6502 0.993,1.0666 1.745,0.9847 4.447,-0.4851 5.728,4.0533 5.78,4.2475 0.249,0.9137 1.19,1.454 2.105,1.2075 0.915,-0.2471 1.457,-1.1883 1.21,-2.1017 -0.709,-2.6174 -3.599,-7.401 -9.467,-6.7609 -0.943,0.1031 -1.623,0.9491 -1.52,1.8902 0.02,0.1891 0.071,0.3685 0.147,0.5327 z"
              id="Fill 39-6"
              inkscape:connector-curvature="0"
              style="clip-rule:evenodd;fill:#306999;fill-rule:evenodd"/>
            <path
              d="m 245.465,56.3668 c 0,0 -12.644,10.7842 -26.707,7.8246 0,0 5.22,15.213 16.573,12.2944 9.69,-2.491 12.412,-10.5501 10.134,-20.119 z"
              id="Fill 41-1"
              inkscape:connector-curvature="0"
              style="clip-rule:evenodd;fill:#231f1f;fill-rule:evenodd"/>
            <path
              d="m 244.912,69.0132 c -1.598,3.5551 -4.706,6.2194 -9.581,7.4726 -4.355,1.1195 -7.804,-0.4315 -10.406,-2.7655 1.501,-1.5643 4.026,-3.5314 8.053,-4.9019 5.221,-1.7777 9.639,-0.6852 11.934,0.1948 z"
              id="Fill 43-8"
              inkscape:connector-curvature="0"
              style="clip-rule:evenodd;fill:#e894aa;fill-rule:evenodd"/>
            <path
              d="m 242.07,66.8109 c 0.64,-0.626 2.274,0.2291 3.348,0.9102 -0.361,1.0909 -0.864,2.1017 -1.481,3.0394 -1.012,-1.2106 -2.552,-3.2805 -1.867,-3.9496 z"
              id="Fill 45"
              inkscape:connector-curvature="0"
              style="clip-rule:evenodd;fill:#ffffff;fill-rule:evenodd"/>
            <path
              d="m 227.706,72.2421 c 0.8,0.4233 0.466,2.2678 0.139,3.4974 -0.92,-0.4602 -1.766,-1.0395 -2.542,-1.692 0.811,-1.0997 1.784,-2.1332 2.403,-1.8054 z"
              id="Fill 47"
              inkscape:connector-curvature="0"
              style="clip-rule:evenodd;fill:#ffffff;fill-rule:evenodd"/>
            <path
              d="m 242.07,66.8109 c 0.64,-0.626 2.274,0.2291 3.348,0.9102 -0.361,1.0909 -0.864,2.1017 -1.481,3.0394 -1.012,-1.2106 -2.552,-3.2805 -1.867,-3.9496 z"
              id="Fill 49-7"
              inkscape:connector-curvature="0"
              style="clip-rule:evenodd;fill:#ffffff;fill-rule:evenodd"/>
            <path
              d="m 227.706,72.2421 c 0.8,0.4233 0.466,2.2678 0.139,3.4974 -0.92,-0.4602 -1.766,-1.0395 -2.542,-1.692 0.811,-1.0997 1.784,-2.1332 2.403,-1.8054 z"
              id="Fill 51"
              inkscape:connector-curvature="0"
              style="clip-rule:evenodd;fill:#ffffff;fill-rule:evenodd"/>
            <path
              d="M 79.3223,23.4924 205,18.3818 V 113.697 H 79.3223 Z"
              id="Fill 53-9"
              inkscape:connector-curvature="0"
              style="clip-rule:evenodd;fill:#d2f2ff;fill-rule:evenodd"/>
            <path
              d="m 183.731,91.9496 c 4.707,-0.348 9.48,0.2332 13.965,1.7011 -2.649,-6.0423 -10.037,-9.5856 -16.078,-6.9153 3.406,-5.0935 9.245,-8.4837 15.363,-8.92 -2.36,-3.1632 -6.865,-4.5343 -10.591,-3.2228 -3.726,1.3112 -6.79,5.7352 -6.642,9.6767 -1.05,-4.2576 -5.52,-7.3837 -9.887,-6.914 -4.366,0.4699 -8.067,4.4754 -8.184,8.8587 4.014,-1.4237 8.301,-0.9058 12.425,0.2172 -2.488,-0.1346 -5.134,1.6831 -6.162,4.0918 -1.312,3.0735 -0.669,6.6165 0.346,9.8 2.155,-4.1199 5.485,-7.3831 9.132,-10.2724 3.214,7.5526 5.435,15.5244 6.607,23.6464 h 9.376 c -2.416,-7.584 -5.115,-14.8936 -10.851,-20.5071 -0.52,-0.5084 0.456,-1.1867 1.181,-1.2403 z"
              id="Fill 55"
              inkscape:connector-curvature="0"
              style="clip-rule:evenodd;fill:#348948;fill-rule:evenodd"/>
            <path
              d="m 124.807,93.8777 c -0.388,-3.3735 -2.88,-6.4151 -6.116,-7.4619 -3.235,-1.0467 -7.041,-0.0435 -9.337,2.4623 1.481,-5.1487 2.862,-10.2018 6.125,-14.4544 -3.478,-0.608 -7.241,0.8551 -9.39,3.6528 -2.15,2.7973 -2.591,6.8043 -1.102,10.0013 -3.493,-3.3417 -9.6286,-3.9345 -14.2914,-2.6476 3.6642,3.1336 8.2017,4.3544 12.7234,6.0334 -2.164,6.909 -4.8468,15.1524 -6.568,22.2334 h 7.854 c 0.324,-6.823 1.843,-13.591 4.492,-19.8893 4.792,2.571 8.588,5.9268 12.57,9.6283 0.412,-5.7124 -4.313,-11.308 -10.021,-11.8687 4.625,-0.4347 8.74,0.608 13.061,2.3104 z"
              id="Fill 57"
              inkscape:connector-curvature="0"
              style="clip-rule:evenodd;fill:#348948;fill-rule:evenodd"/>
            <path
              d="m 95.9207,42.3712 c -4.7456,-1.245 -10.1686,2.3482 -10.8631,7.1977 -0.6945,4.8493 3.5023,9.8161 8.407,9.9487 -0.6879,0.3685 -1.2041,1.0301 -1.5665,1.72 -1.3695,2.6067 -1.7136,5.822 -0.5402,8.5222 1.1735,2.6999 3.9854,4.7184 6.9305,4.5936 2.9456,-0.1251 5.7026,-2.6495 5.7416,-5.5924 0.829,2.7005 4.054,4.1271 6.848,3.6827 2.794,-0.4445 5.151,-2.3337 7.012,-4.4613 2.527,-2.8884 4.461,-6.6798 3.792,-10.4565 -0.669,-3.7766 -4.857,-6.9647 -8.401,-5.4855 2.133,-1.4903 2.915,-4.2725 3.574,-6.7864 0.659,-2.5146 -0.013,-5.4544 -2.034,-7.0925 -2.021,-1.6387 -5.386,-1.535 -6.998,0.5065 -1.552,1.9668 -1.158,4.8814 -2.402,7.0556 0.696,-2.1884 0.351,-4.755 -1.155,-6.4898 -1.507,-1.7348 -4.217,-2.4185 -6.2472,-1.3396 -2.0296,1.0786 -3.3739,2.5666 -2.0981,4.477 z"
              id="Fill 59-2"
              inkscape:connector-curvature="0"
              style="clip-rule:evenodd;fill:#ffffff;fill-rule:evenodd"/>
            <path
              d="m 186.299,34.9811 c 2.968,-0.7665 6.277,0.8495 7.816,3.4967 1.539,2.647 1.404,6.0814 0.001,8.8024 -1.187,2.3031 -3.331,4.1952 -5.88,4.6752 -2.549,0.4804 -5.434,-0.6704 -6.618,-2.9747 0.899,2.6892 -1.127,5.8102 -3.875,6.5244 -2.749,0.7146 -5.774,-0.6893 -7.439,-2.9858 -1.666,-2.2971 -1.069,-5.0695 -0.693,-7.8801 -2.664,2.2703 -6.896,2.5758 -9.732,0.5226 -2.835,-2.0535 -3.82,-6.3612 -1.969,-9.3303 1.851,-2.9691 6.372,-3.9333 9.156,-1.8124 -0.029,-0.0955 -0.811,-0.2578 -0.866,-0.3419 -2.029,-3.0908 -0.687,-7.9873 2.806,-9.2106 3.492,-1.2235 7.79,2.3517 6.837,5.9225 0.847,-3.5503 2.094,-7.1501 5.723,-7.5816 2.168,-0.2579 4.317,1.1734 5.289,3.126 0.971,1.9523 0.901,4.2989 0.23,6.3738 -0.331,1.0225 0.289,2.7384 -0.786,2.6738 z"
              id="Fill 61"
              inkscape:connector-curvature="0"
              style="clip-rule:evenodd;fill:#ffffff;fill-rule:evenodd"/>
            <path
              d="m 228.822,87.7838 c -3.862,-0.7534 -7.1,-3.3553 -9.811,-6.2021 z"
              id="Fill 63-0"
              inkscape:connector-curvature="0"
              style="clip-rule:evenodd;fill:#2c6698;fill-rule:evenodd"/>
            <path
              d="m 265.55,26.6682 -13.63,-5.5413 -3.941,-6.243 7.256,-1.8836 13.63,5.5414 z"
              id="Fill 65"
              inkscape:connector-curvature="0"
              style="clip-rule:evenodd;fill:#fac011;fill-rule:evenodd"/>
            <path
              d="m 251.92,21.1269 3.315,-8.1266 -7.256,1.8836 z"
              id="Fill 67"
              inkscape:connector-curvature="0"
              style="clip-rule:evenodd;fill:#fff8e6;fill-rule:evenodd"/>
            <path
              d="m 250.196,18.3963 1.865,-4.5724 -4.082,1.0599 z"
              id="Fill 69-2"
              inkscape:connector-curvature="0"
              style="clip-rule:evenodd;fill:#231f1f;fill-rule:evenodd"/>
            <path
              d="m 267.982,20.7443 -1.522,3.7321 -13.644,-5.547 1.522,-3.7322 z"
              id="Fill 71"
              inkscape:connector-curvature="0"
              style="clip-rule:evenodd;fill:#ffd364;fill-rule:evenodd"/>
            <path
              d="m 271.363,19.5574 -3.315,8.1262 -2.498,-1.0152 3.315,-8.1269 z"
              id="Fill 73-3"
              inkscape:connector-curvature="0"
              style="clip-rule:evenodd;fill:#564550;fill-rule:evenodd"/>
            <path
              d="m 274.791,27.721 1.423,-3.487 c 0.522,-1.2809 -0.094,-2.7428 -1.377,-3.2644 l -3.474,-1.4121 -3.315,8.1263 3.474,1.4123 c 1.283,0.522 2.747,-0.0939 3.269,-1.3751 z"
              id="Fill 75-7"
              inkscape:connector-curvature="0"
              style="clip-rule:evenodd;fill:#e8635c;fill-rule:evenodd"/>
          </g>
          <path
            d="m 229.776,86.8706 c -3.862,-0.7534 -7.1,-3.3553 -9.811,-6.2021 -2.711,-2.8468 -5.088,-6.0381 -8.144,-8.513 -2.57,-2.0821 -5.793,-3.6354 -9.05,-3.6244 -0.72,0.0025 -1.086,0.8684 -0.582,1.3825 0.626,0.6379 1.219,1.3071 1.778,2.0046 -0.794,0.2405 -2.107,0.642 -3.224,0.9827 -0.623,0.1898 -0.777,0.9894 -0.279,1.4083 0.806,0.6799 1.701,1.2548 2.656,1.7046 -0.918,0.1569 -2.232,0.6669 -3.353,1.1649 -0.572,0.2547 -0.651,1.0348 -0.142,1.3998 6.046,4.3389 8.454,11.8651 14.062,17.0106 3.126,2.8673 7.099,4.8019 11.286,5.4969 2.994,-4.7524 3.949,-8.6668 4.803,-14.2154 z"
            id="Fill 1_2"
            inkscape:connector-curvature="0"
            style="clip-rule:evenodd;fill:#2c6698;fill-rule:evenodd"/>
        </g>
        <g
          id="Group_2">
          <g
            id="Group 85">
            <path
              d="m 136.931,153.742 c 0,6.88 -29.002,12.457 -64.7775,12.457 -35.7755,0 -64.77771,-5.577 -64.77771,-12.457 0,-6.881 29.00221,-12.458 64.77771,-12.458 35.7755,0 64.7775,5.577 64.7775,12.458 z"
              id="Fill 1_3"
              inkscape:connector-curvature="0"
              style="clip-rule:evenodd;fill:#e5e5e5;fill-rule:evenodd"/>
            <path
              d="m 51.2016,151.799 c -2.0368,-0.519 -4.0215,-1.725 -5.1463,-3.712 -1.5361,1.417 -3.1414,2.738 -4.8054,3.957 -0.5349,0.391 -1.3102,0.745 -1.7386,0.212 -0.1925,-0.239 -0.234,-0.583 -0.2661,-0.904 -0.3273,-3.25 -0.6534,-6.558 -0.119,-9.772 0.3515,-2.115 1.4503,-4.486 3.3499,-4.641 0.6924,-0.057 1.3698,0.204 2.0533,0.34 1.6383,0.327 3.3351,-0.06 4.9801,0.22 2.6386,0.449 4.8706,2.611 6.208,5.219 3.051,5.951 2.2864,10.816 -4.5159,9.081 z"
              id="Fill 3_2"
              inkscape:connector-curvature="0"
              style="clip-rule:evenodd;fill:#7fab35;fill-rule:evenodd"/>
            <path
              d="m 84.1252,103.665 c 13.282,2.454 27.6748,-2.383 36.8028,-12.369 -3.354,-2.9634 -6.513,-6.1473 -9.452,-9.5249 -5.327,2.7329 -11.45,3.8812 -17.401,3.2635 -0.8697,-0.0907 -2.0258,-0.6892 -1.6664,-1.4891 -4.0386,8.3932 -7.4638,15.4109 -10.9145,24.0635 0.0811,-0.511 2.55,-3.433 2.6311,-3.944 z"
              id="Fill 5_2"
              inkscape:connector-curvature="0"
              style="clip-rule:evenodd;fill:#7fab35;fill-rule:evenodd"/>
            <path
              d="m 131.617,88.3004 c -5.103,3.8255 -10.015,7.9078 -14.711,12.2266 -2.775,-7.2473 -6.062,-14.297 -9.827,-21.0797 5.384,-1.2349 10.472,-1.8041 15.856,-3.0389 2.373,4.0889 5.012,8.0222 7.895,11.7662 -0.216,-0.3074 1.003,0.4333 0.787,0.1258 z"
              id="Fill 7_2-5"
              inkscape:connector-curvature="0"
              style="clip-rule:evenodd;fill:#0e58a3;fill-rule:evenodd"/>
            <path
              d="m 49.5856,36.5714 c 0,0 -15.5125,-0.5274 -19.6458,-0.4707 -4.133,0.0567 -10.2298,1.791 -9.997,6.4988 0.2323,4.7076 8.3201,4.0259 9.3491,9.9471 1.0287,5.9215 20.2937,-15.9752 20.2937,-15.9752 z"
              id="Fill 9_2"
              inkscape:connector-curvature="0"
              style="clip-rule:evenodd;fill:#94c93d;fill-rule:evenodd"/>
            <path
              d="m 43.126,36.3674 c -3.0006,1.0858 -5.6618,2.9358 -8.2234,4.8444 -1.3907,1.0364 -2.8025,2.1164 -4.4588,2.6272 -2.1584,0.666 -4.5199,0.2444 -6.4585,-0.8574 -1.2717,-0.7229 -2.1359,-2.2655 -3.1156,-3.428 -0.6287,0.8363 -0.9867,1.843 -0.927,3.0456 0.2325,4.7076 8.3204,4.0262 9.3491,9.9477 1.0289,5.9212 20.2939,-15.9755 20.2939,-15.9755 0,0 -2.8656,-0.0973 -6.4597,-0.204 z"
              id="Fill 11_2"
              inkscape:connector-curvature="0"
              style="clip-rule:evenodd;fill:#7fab35;fill-rule:evenodd"/>
            <path
              d="m 19.8341,85.0598 c 0,0 -2.1141,9.2463 -3.7438,11.598 -1.6299,2.3518 -7.56943,7.8152 -6.69337,8.9632 0.87637,1.148 20.97137,0.849 19.40197,-13.9857 L 24.2712,80.1041 Z"
              id="Fill 13_2"
              inkscape:connector-curvature="0"
              style="clip-rule:evenodd;fill:#000000;fill-rule:evenodd"/>
            <path
              d="m 21.1286,76.2881 c 0.746,-0.9512 -11.29908,2.6813 -20.140502,15.1605 0,0 20.095602,11.8754 25.178202,-11.306 z"
              id="Fill 15_2"
              inkscape:connector-curvature="0"
              style="clip-rule:evenodd;fill:#221e1f;fill-rule:evenodd"/>
            <path
              d="m 43.8251,132.474 c 0,0 -11.6228,-25.043 -15.6802,-33.3393 C 24.0878,90.8385 16.2004,75.6321 15.1893,72.4119 14.1783,69.1914 11.8588,61.8038 18.9771,55.3898 26.0954,48.9761 42.2589,36.9969 58.7732,34.0684 c 16.5143,-2.9282 18.1202,2.1867 21.6525,8.1498 3.5327,5.9633 26.0203,54.4523 28.2073,66.0458 2.187,11.594 -2.026,12.718 -5.117,14.111 -3.091,1.393 -36.1223,14.599 -41.3072,16.691 -8.1052,3.27 -14.3599,4.902 -18.3837,-6.592 z"
              id="Fill 17_2"
              inkscape:connector-curvature="0"
              style="clip-rule:evenodd;fill:#94c93d;fill-rule:evenodd"/>
            <path
              d="m 43.8037,85.24 c -7.6807,0.317 -9.3187,1.6527 -13.1112,8.361 -1.0289,1.82 -1.8381,3.7435 -2.4506,5.7314 4.1405,8.4856 15.5832,33.1416 15.5832,33.1416 0.5056,1.445 1.0469,2.682 1.6227,3.735 -2.6418,-8.72 -5.078,-17.502 -7.2999,-26.338 -0.508,-2.021 -1.0052,-4.149 -0.4686,-6.163 0.3432,-1.288 1.0866,-2.426 1.8185,-3.539 1.9059,-2.8983 3.8115,-5.7963 5.7171,-8.6949 3.1425,0.8909 6.8113,-1.005 7.9121,-4.0892 l -2.8159,0.0964 C 50.0282,86.2322 45.0791,85.1874 43.8037,85.24 Z"
              id="Fill 19_2"
              inkscape:connector-curvature="0"
              style="clip-rule:evenodd;fill:#7fab35;fill-rule:evenodd"/>
            <path
              d="m 15.0312,41.6252 c 0.9166,2.9192 -0.6994,6.0313 -3.6091,6.9509 -2.90995,0.9196 -6.01193,-0.7017 -6.92854,-3.6211 -0.91661,-2.9192 0.6994,-6.0314 3.60938,-6.951 2.90966,-0.9196 6.01166,0.7017 6.92826,3.6212 z"
              id="Fill 21_2-9"
              inkscape:connector-curvature="0"
              style="clip-rule:evenodd;fill:#94c93d;fill-rule:evenodd"/>
            <path
              d="M 41.0563,78.4321 C 51.7469,64.5065 67.7002,55.9325 83.4245,48.0382 82.0465,45.2253 80.992,43.1735 80.4256,42.2181 79.5909,40.8089 78.862,39.4483 78.0201,38.2288 c -3.248,-0.6848 -6.6894,-0.1665 -9.9486,0.5994 -9.8377,2.312 -19.0738,6.763 -27.6558,12.1126 -4.7052,2.9332 -9.3387,6.1906 -14.6701,7.7003 -6.1524,1.7415 -2.0869,-4.9856 -0.322,-8.535 -2.5749,1.9426 -4.7655,3.769 -6.4464,5.2837 -7.1182,6.4139 -4.7991,13.8016 -3.7877,17.0218 1.011,3.2205 8.8981,18.4269 12.9555,26.7227 0.1388,0.2839 0.2807,0.5887 0.4246,0.9107 3.7559,-7.4679 7.4122,-15.0025 12.4867,-21.6129 z"
              id="Fill 23_2"
              inkscape:connector-curvature="0"
              style="clip-rule:evenodd;fill:#7fab35;fill-rule:evenodd"/>
            <path
              d="m 24.4265,91.9809 c 0,0 20.0188,-36.3104 61.5566,-37.7763 0,0 -1.779,-11.5146 -6.2711,-14.2595 0,0 -21.6343,-0.1583 -45.4261,17.2702 0,0 -19.3863,15.1966 -17.6675,19.2178 z"
              id="Fill 25_2"
              inkscape:connector-curvature="0"
              style="clip-rule:evenodd;fill:#221e1f;fill-rule:evenodd"/>
            <path
              d="m 80.3609,76.8939 c 0,0 -15.5531,5.3294 -20.5025,7.4138 -4.9491,2.0844 -8.0206,4.2005 -5.2537,11.0303 2.7669,6.83 14.7236,6.903 23.435,2.5891 8.7114,-4.3147 12.8928,-9.1757 11.635,-14.5044 -1.2581,-5.3288 -4.7426,-8.1114 -9.3138,-6.5288 z"
              id="Fill 27-2"
              inkscape:connector-curvature="0"
              style="clip-rule:evenodd;fill:#ffffff;fill-rule:evenodd"/>
            <path
              d="m 62.838,85.24 c 0,0 2.3394,10.6935 4.1037,13.0705 0,0 -1.4695,-8.2807 -4.1037,-13.0705 z"
              id="Fill 29_2"
              inkscape:connector-curvature="0"
              style="clip-rule:evenodd;fill:#c4c4c4;fill-rule:evenodd"/>
            <path
              d="m 71.9312,82.3665 c 0,0 2.3392,10.6935 4.1038,13.0706 0,0 -1.4698,-8.2808 -4.1038,-13.0706 z"
              id="Fill 31-2"
              inkscape:connector-curvature="0"
              style="clip-rule:evenodd;fill:#c4c4c4;fill-rule:evenodd"/>
            <path
              d="m 80.2828,79.7274 c 0,0 2.3392,10.6935 4.1038,13.0706 0,0 -1.4695,-8.2811 -4.1038,-13.0706 z"
              id="Fill 33-8"
              inkscape:connector-curvature="0"
              style="clip-rule:evenodd;fill:#c4c4c4;fill-rule:evenodd"/>
            <path
              d="m 78.1159,68.7517 c -0.2792,-0.8894 0.2129,-1.8372 1.0994,-2.1173 0.8862,-0.2801 1.8312,0.2138 2.1103,1.1032 0.2792,0.8891 -0.2128,1.8369 -1.0993,2.1173 -0.8862,0.2801 -1.8312,-0.2139 -2.1104,-1.1032 z"
              id="Fill 35_2"
              inkscape:connector-curvature="0"
              style="clip-rule:evenodd;fill:#221e1f;fill-rule:evenodd"/>
            <path
              d="m 52.6542,80.201 c 0,0 0.0597,-2.5368 2.3962,-3.2751 2.3366,-0.7386 3.9764,1.2613 3.9764,1.2613"
              id="Stroke 37"
              inkscape:connector-curvature="0"
              style="stroke:#221e1f;stroke-width:2.16000009"/>
            <path
              d="m 129.247,47.5892 c -0.348,-5.6678 -5.476,-9.6226 -9.799,-13.2876 -0.88,-0.7461 -1.779,-1.5614 -2.158,-2.6527 -0.38,-1.0914 -0.029,-2.5258 1.035,-2.9663 1.226,-0.5073 2.506,0.4774 3.562,1.2825 1.055,0.8048 2.695,1.4365 3.576,0.4428 0.519,-0.5849 0.482,-1.4679 0.358,-2.2407 -0.48,-2.975 -1.815,-5.8809 -1.461,-8.8738 0.143,-1.2064 0.709,-2.5261 1.863,-2.8937 1.316,-0.4189 2.692,0.6506 3.284,1.902 0.592,1.2517 0.677,2.6809 1.111,3.9957 0.121,0.367 0.28,0.7392 0.572,0.9905 0.813,0.697 2.16,0.0151 2.575,-0.9728 0.414,-0.9885 0.23,-2.1094 0.189,-3.181 -0.069,-1.8644 0.332,-3.7449 1.157,-5.4176 0.401,-0.8139 0.948,-1.6202 1.779,-1.9804 1.671,-0.7258 3.604,0.7999 4.075,2.565 0.471,1.7648 -0.042,3.6208 -0.413,5.4095 -0.37,1.7886 -0.562,3.7894 0.436,5.3177 0.26,0.3986 0.657,0.7761 1.132,0.7583 0.705,-0.0264 1.059,-0.8376 1.332,-1.4908 0.642,-1.5356 1.799,-2.9381 3.372,-3.4686 1.573,-0.5309 3.558,0.0404 4.303,1.5277 1.041,2.0766 -0.62,4.4475 -2.233,6.1156 -1.614,1.6678 -3.433,3.8187 -2.705,6.0249 0.96,0.2278 1.735,-0.7284 2.552,-1.2825 1.491,-1.01 3.758,-0.5866 4.786,0.894 1.029,1.4801 0.64,3.7601 -0.82,4.8139 -1.443,1.0417 -3.427,0.8345 -5.089,1.4699 -2.548,0.9737 -3.965,3.8499 -4.059,6.5837 -0.094,2.7338 0.871,5.3796 1.822,7.9434"
              id="Fill 39_2"
              inkscape:connector-curvature="0"
              style="clip-rule:evenodd;fill:#ffa227;fill-rule:evenodd"/>
            <path
              d="m 132.638,51.9631 c -0.043,-4.4893 -1.71,-8.9452 -4.623,-12.354 -0.668,-0.7825 -1.417,-1.5382 -1.779,-2.5031 -0.362,-0.9644 -0.205,-2.2248 0.662,-2.7768 0.863,-0.5498 2.084,-0.1468 2.722,0.6549 0.372,0.4686 0.616,1.0677 1.125,1.3818 1.082,0.6683 2.48,-0.4736 2.793,-1.709 0.313,-1.2351 0.026,-2.5572 0.291,-3.8039 0.265,-1.2468 1.534,-2.4816 2.687,-1.9456 0.893,0.4158 1.094,1.576 1.179,2.5601 0.131,1.5283 0.263,3.0563 0.394,4.5849 0.029,0.3281 0.064,0.675 0.26,0.9391 0.524,0.7034 1.684,0.2682 2.229,-0.4199 0.544,-0.6874 0.888,-1.5997 1.671,-1.9923 1.514,-0.7601 3.166,1.1977 3.01,2.8887 -0.155,1.6913 -1.297,3.1022 -1.965,4.6625 -1.605,3.7482 -0.393,8.0449 0.832,11.9339"
              id="Fill 41_2"
              inkscape:connector-curvature="0"
              style="clip-rule:evenodd;fill:#f15a2b;fill-rule:evenodd"/>
            <path
              d="m 108.095,88.2403 60.23,-4.9519 -13.286,-15.241 C 150.229,62.529 147.31,55.6071 146.713,48.3 l -0.215,-2.6368 -19.934,1.639 0.111,1.3621 c 0.672,8.2195 -1.636,16.4061 -6.498,23.0555 z"
              id="Fill 43_2"
              inkscape:connector-curvature="0"
              style="clip-rule:evenodd;fill:#564550;fill-rule:evenodd"/>
            <path
              d="m 124.616,47.0532 c -0.089,-1.0933 0.721,-2.0519 1.811,-2.1414 l 4.603,-0.3786 c 0,0 3.522,-4.1636 8.11,-0.6668 0,0 1.256,-2.8181 4.165,-0.3422 l 3.069,-0.2525 c 1.089,-0.0895 2.045,0.724 2.134,1.8171 0.089,1.093 -0.722,2.0519 -1.811,2.1411 L 126.75,48.87 c -1.089,0.0898 -2.045,-0.7237 -2.134,-1.8168 z"
              id="Fill 45_2"
              inkscape:connector-curvature="0"
              style="clip-rule:evenodd;fill:#a89aa3;fill-rule:evenodd"/>
            <path
              d="m 117.326,87.4813 c 0,0 7.969,-9.2312 10.726,-14.6689 0.577,-1.1381 2.061,-1.4365 3.032,-0.6104 0,0 1.485,-11.5234 0.488,-23.7284 l 3.568,-0.2934 c 0,0 4.068,30.2867 -4.881,38.238 z"
              id="Fill 47_2"
              inkscape:connector-curvature="0"
              style="clip-rule:evenodd;fill:#3f2f3a;fill-rule:evenodd"/>
            <path
              d="m 138.587,47.897 c 0,0 0.981,10.6567 2.191,13.3242 -1.613,0.1325 -2.772,1.6147 -2.514,3.2182 0.849,5.2895 2.881,16.21 5.804,20.8432 l 11.179,-0.9191 c 0,0 -4.683,-6.9314 -6.752,-11.3469 -0.491,-1.0472 -1.583,-1.6733 -2.734,-1.5786 l -0.394,0.0325 c 0,0 -4.642,-17.6613 -4.589,-23.7539 z"
              id="Fill 49_2"
              inkscape:connector-curvature="0"
              style="clip-rule:evenodd;fill:#3f2f3a;fill-rule:evenodd"/>
            <path
              d="m 126.46,56.1997 c -0.776,5.5772 -2.917,10.917 -6.283,15.5199 l -4.249,5.8096 2.72,-0.2234 c 0.347,-0.0288 0.682,-0.1427 0.972,-0.3368 1.761,-1.177 7.823,-6.0839 9.078,-18.4882 0.131,-1.2932 -0.947,-2.3872 -2.238,-2.2811 z"
              id="Fill 51_2"
              inkscape:connector-curvature="0"
              style="clip-rule:evenodd;fill:#3f2f3a;fill-rule:evenodd"/>
            <path
              d="m 155.039,68.0474 c -1.491,-1.7105 -2.799,-3.5555 -3.914,-5.5051 -1.198,1.2662 -1.447,3.1717 -0.59,4.6913 4.373,7.7592 13.479,16.409 13.479,16.409 l 4.311,-0.3545 z"
              id="Fill 53_2"
              inkscape:connector-curvature="0"
              style="clip-rule:evenodd;fill:#3f2f3a;fill-rule:evenodd"/>
            <path
              d="m 148.209,57.3897 c 0.064,0.7839 -0.517,1.471 -1.298,1.5355 -0.782,0.0642 -1.466,-0.5192 -1.531,-1.3028 -0.063,-0.7836 0.518,-1.4714 1.299,-1.5353 0.781,-0.0642 1.466,0.5189 1.53,1.3026 z"
              id="Fill 55_2"
              inkscape:connector-curvature="0"
              style="clip-rule:evenodd;fill:#a89aa3;fill-rule:evenodd"/>
            <path
              d="m 130.041,78.3445 c 0.134,1.6399 -1.082,3.0778 -2.717,3.212 -1.634,0.1346 -3.068,-1.0858 -3.202,-2.7253 -0.133,-1.6396 1.083,-3.0779 2.717,-3.2121 1.634,-0.1345 3.068,1.0858 3.202,2.7254 z"
              id="Fill 57_2"
              inkscape:connector-curvature="0"
              style="clip-rule:evenodd;fill:#a89aa3;fill-rule:evenodd"/>
            <path
              d="m 189.25,87.3471 -98.8697,8.1291 c -1.5798,0.1299 -2.9659,-1.0501 -3.0954,-2.6353 -0.1294,-1.5853 1.0464,-2.9756 2.6265,-3.1055 l 98.8696,-8.1291 c 1.58,-0.1298 2.967,1.0498 3.096,2.6354 0.129,1.5852 -1.047,2.9755 -2.627,3.1054 z"
              id="Fill 59_2"
              inkscape:connector-curvature="0"
              style="clip-rule:evenodd;fill:#c6c6c6;fill-rule:evenodd"/>
            <path
              d="m 162.419,27.3844 c 0,1.9871 -1.605,3.5979 -3.586,3.5979 -1.981,0 -3.586,-1.6108 -3.586,-3.5979 0,-1.9871 1.605,-3.598 3.586,-3.598 1.981,0 3.586,1.6109 3.586,3.598 z"
              id="Fill 61_2"
              inkscape:connector-curvature="0"
              style="clip-rule:evenodd;fill:#ffa227;fill-rule:evenodd"/>
            <path
              d="m 109.589,24.6383 c 0,2.6568 -2.146,4.8101 -4.794,4.8101 -2.648,0 -4.794,-2.1533 -4.794,-4.8101 0,-2.6565 2.146,-4.8098 4.794,-4.8098 2.648,0 4.794,2.1533 4.794,4.8098 z"
              id="Fill 63_2"
              inkscape:connector-curvature="0"
              style="clip-rule:evenodd;fill:#ffa227;fill-rule:evenodd"/>
            <path
              d="m 117.142,45.2872 c 0,1.557 -1.258,2.8192 -2.81,2.8192 -1.552,0 -2.81,-1.2622 -2.81,-2.8192 0,-1.5568 1.258,-2.819 2.81,-2.819 1.552,0 2.81,1.2622 2.81,2.819 z"
              id="Fill 65_2"
              inkscape:connector-curvature="0"
              style="clip-rule:evenodd;fill:#ffa227;fill-rule:evenodd"/>
            <path
              d="m 129.891,3.43328 c 0,1.55679 -1.258,2.81895 -2.809,2.81895 -1.553,0 -2.81,-1.26216 -2.81,-2.81895 0,-1.55678 1.257,-2.819236 2.81,-2.819236 1.551,0 2.809,1.262456 2.809,2.819236 z"
              id="Fill 67_2"
              inkscape:connector-curvature="0"
              style="clip-rule:evenodd;fill:#f15a2b;fill-rule:evenodd"/>
            <path
              d="m 91.7393,121.834 c -2.7379,-4.511 -9.4116,-19.821 -8.8014,-20.106 2.8723,-1.346 5.7444,-2.691 8.6167,-4.0365 0.377,-0.1764 0.7692,-0.365 1.0226,-0.6959 0.6339,-0.8287 0.1068,-1.9941 -0.1104,-3.0154 -0.6785,-3.1906 2.8816,-6.4317 5.981,-5.445 1.6602,0.5283 -0.3831,3.2031 0.7898,4.4955 0.8434,0.9289 2.2754,0.9245 3.5254,0.8501 1.329,-0.079 2.658,-0.158 3.988,-0.237 0.687,-0.041 1.435,-0.0654 1.995,0.3364 1.307,0.9379 0.423,3.0244 -0.694,4.1851 2.152,1.1132 1.596,4.7017 -0.21,6.3187 1.145,0.355 1.447,1.984 0.839,3.02 -0.608,1.036 -1.78,1.585 -2.907,1.993 -2.222,0.804 -4.553,1.305 -6.9083,1.483 z"
              id="Fill 69_2"
              inkscape:connector-curvature="0"
              style="clip-rule:evenodd;fill:#0e58a3;fill-rule:evenodd"/>
            <path
              d="m 59.0267,107.61 h 22.4675 c 0,0 12.1508,17.779 10.2451,14.224 -1.9056,-3.555 -8.8014,-20.106 -8.8014,-20.106 0,0 -11.2104,4.304 -23.9112,5.882 z"
              id="Fill 71_2"
              inkscape:connector-curvature="0"
              style="clip-rule:evenodd;fill:#7fab35;fill-rule:evenodd"/>
            <path
              d="m 85.9831,128.754 c 0,0 12.4893,5.051 12.0549,12.717 -0.1885,3.328 -0.5653,5.912 -0.9311,7.77 -0.3684,1.872 1.0695,3.612 2.9721,3.612 h 16.348 c 0,0 -0.1,-4.505 -6.023,-5.854 0,0 8.37,-23.477 -1.723,-39.495 z"
              id="Fill 73_2"
              inkscape:connector-curvature="0"
              style="clip-rule:evenodd;fill:#94c93d;fill-rule:evenodd"/>
            <path
              d="m 100.079,152.853 h 3.407 c 0.374,-1.581 0.595,-3.207 0.718,-4.826 0.287,-3.777 0.057,-7.654 -1.262,-11.203 -1.318,-3.549 -3.8151,-6.754 -7.2183,-8.394 -2.974,-1.433 -7.4238,-1.599 -9.5927,0.386 1.4003,0.596 12.3133,5.48 11.907,12.655 -0.1886,3.328 -0.5653,5.912 -0.9311,7.77 -0.3684,1.872 1.0695,3.612 2.9721,3.612 z"
              id="Fill 75_2"
              inkscape:connector-curvature="0"
              style="clip-rule:evenodd;fill:#7fab35;fill-rule:evenodd"/>
            <path
              d="m 45.1929,85.3175 c 0,0 -10.7627,10.1336 -14.3689,19.3955 L 26.0191,94.5515 c 0,0 4.9335,-11.5579 13.6368,-16.4061 z"
              id="Fill 77"
              inkscape:connector-curvature="0"
              style="clip-rule:evenodd;fill:#0e58a3;fill-rule:evenodd"/>
            <path
              d="m 71.3474,50.7058 -23.2112,9.1324 c -7.2465,2.8509 -11.0763,10.9454 -8.4805,18.3072 2.7278,7.736 11.2715,11.6096 18.8242,8.6378 2.1263,-0.8365 3.9418,-2.1245 5.3809,-3.7112 2.9491,-3.2519 7.2199,-4.89 11.5872,-4.5332 2.1909,0.179 4.4573,-0.1447 6.6357,-1.0446 C 89.3265,74.5033 92.8655,66.1194 89.9744,58.8163 87.052,51.4331 78.7266,47.8026 71.3474,50.7058 Z"
              id="Fill 79"
              inkscape:connector-curvature="0"
              style="clip-rule:evenodd;opacity:0.46556899;fill:#ffffff;fill-rule:evenodd"/>
            <path
              d="m 71.3474,50.7058 -23.2112,9.1324 c -7.2465,2.8509 -11.0763,10.9454 -8.4805,18.3072 2.7278,7.736 11.2715,11.6096 18.8242,8.6378 2.1263,-0.8365 3.9418,-2.1245 5.3809,-3.7112 2.949,-3.2519 7.2199,-4.89 11.5872,-4.5332 2.1909,0.179 4.4573,-0.1447 6.6357,-1.0446 C 89.3265,74.5033 92.8655,66.1194 89.9744,58.8163 87.052,51.4331 78.7266,47.8026 71.3474,50.7058 Z"
              id="Stroke 81"
              inkscape:connector-curvature="0"
              style="clip-rule:evenodd;fill-rule:evenodd;stroke:#fdc300;stroke-width:5.4000001"/>
            <path
              d="m 45.5535,136.45 c 1.0347,2.487 2.0698,4.974 3.1051,7.461 0.9696,2.33 1.9801,4.721 3.7945,6.54 1.8147,1.818 4.6493,2.951 7.142,2.13 1.6878,-0.556 2.9774,-1.924 3.7304,-3.462 0.753,-1.538 1.0293,-3.245 1.2054,-4.934 0.3246,-3.11 0.3345,-6.272 -0.3131,-9.336 -0.1196,-0.566 -0.2702,-1.146 -0.64,-1.604 -0.3525,-0.437 -0.8717,-0.722 -1.3919,-0.965 -3.5598,-1.664 -7.8492,-1.86 -11.5605,-0.527"
              id="Fill 83"
              inkscape:connector-curvature="0"
              style="clip-rule:evenodd;fill:#94c93d;fill-rule:evenodd"/>
          </g>
          <path
            d="m 89.8942,117.939 c 0,0 -9.2932,4.849 -22.9525,4.365 0,0 14.6005,3.031 24.7976,-0.47 z"
            id="Fill 187"
            inkscape:connector-curvature="0"
            style="clip-rule:evenodd;fill:#7fab35;fill-rule:evenodd"/>
        </g>
      </g>
    </g>
    <g
      style="fill:none"
      id="g1374"
      transform="matrix(0.26458333,0,0,0.26458333,-57.189314,87.128366)">
      <g
        id="Group Copy">
        <g
          id="Group 52">
          <path
            d="m 101.022,143.481 c -6.9603,-3.826 -13.549,-8.327 -19.6427,-13.42 -7.2522,-6.06 -14.1669,-13.7 -15.1844,-23.093 -0.3787,-3.498 0.0947,-7.0389 -0.1692,-10.5475 -0.2639,-3.5085 -1.4478,-7.213 -4.3055,-9.2683 -1.6342,-1.175 -4.2164,-1.5461 -5.4613,0.0353 -1.3771,1.7492 -0.1159,4.262 1.0835,6.1369 1.2001,1.8748 2.2571,4.5614 0.6479,6.1001 -1.4184,-1.8095 -4.6191,-2.617 -6.724,-1.6895 -2.1048,0.9272 -3.4236,3.37 -3.0439,5.637 -0.8217,-1.93 -3.7967,-2.065 -5.3331,-0.636 -1.5364,1.429 -1.878,3.74 -1.718,5.831 0.3346,4.373 2.5302,8.574 5.9309,11.346 -0.0202,21.425 10.5126,40.898 27.6831,53.725 4.0606,3.033 9.3086,5.71 14.0147,3.827 2.947,-1.178 4.966,-3.917 6.4805,-6.705 3.9494,-7.27 6.8535,-19.081 5.7415,-27.279 z"
            id="Fill 1"
            inkscape:connector-curvature="0"
            style="clip-rule:evenodd;fill:#f5a921;fill-rule:evenodd"/>
          <path
            d="M 34.9312,124.819 9.38294,121.301 c -3.9624,-0.546 -6.73177,-4.198 -6.18595,-8.158 L 9.61045,66.6226 c 0.54615,-3.9601 4.20085,-6.7279 8.16325,-6.1824 l 25.5479,3.5185 c 3.9624,0.5455 6.7321,4.1981 6.186,8.1582 l -6.4135,46.5201 c -0.5458,3.96 -4.2005,6.728 -8.1629,6.182 z"
            id="Fill 3"
            inkscape:connector-curvature="0"
            style="clip-rule:evenodd;fill:#ededed;fill-rule:evenodd"/>
          <path
            d="M 37.3044,117.305 8.78158,113.377 C 8.44314,113.33 8.20679,113.018 8.25343,112.681 L 14.7153,65.8108 c 0.0463,-0.3379 0.3582,-0.5744 0.6967,-0.5278 l 28.5232,3.928 c 0.3381,0.0466 0.5744,0.3583 0.5278,0.6966 l -6.4615,46.8694 c -0.0467,0.338 -0.359,0.574 -0.6971,0.528 z"
            id="Fill 5"
            inkscape:connector-curvature="0"
            style="clip-rule:evenodd;fill:#8879f3;fill-rule:evenodd"/>
          <path
            d="m 25.2705,119.761 c -0.1996,1.449 -1.5368,2.461 -2.9863,2.262 -1.4499,-0.2 -2.4631,-1.536 -2.2631,-2.985 0.1996,-1.449 1.5368,-2.462 2.9866,-2.262 1.4492,0.199 2.4624,1.536 2.2628,2.985 z"
            id="Fill 7"
            inkscape:connector-curvature="0"
            style="clip-rule:evenodd;fill:#7f7f7f;fill-rule:evenodd"/>
          <path
            d="m 70.0254,120.367 c -1.6452,2.718 -2.4595,5.824 -2.3525,8.971 0.0279,0.82 0.2208,1.787 1.0913,2.222 1.3008,0.651 2.6719,-0.453 3.4099,-1.461 2.0426,-2.79 3.7917,-5.741 5.2225,-8.814"
            id="Fill 9"
            inkscape:connector-curvature="0"
            style="clip-rule:evenodd;fill:#ffffff;fill-rule:evenodd"/>
          <path
            d="m 68.3191,124.241 c 2.1536,0.699 4.7767,0.927 7.0646,0.917 0.727,-1.268 1.4007,-2.559 2.013,-3.873 l -7.3713,-0.918 c -0.7404,1.223 -1.311,2.526 -1.7063,3.874 z"
            id="Fill 11"
            inkscape:connector-curvature="0"
            style="clip-rule:evenodd;fill:#cfcece;fill-rule:evenodd"/>
          <path
            d="m 68.8742,149.527 c -0.6193,0.755 -1.293,1.594 -1.2605,2.57 0.0286,0.87 0.6179,1.614 1.2333,2.229 4.7958,4.797 12.6697,5.624 18.9623,3.089 6.2927,-2.537 11.0963,-7.927 14.2527,-13.93 4.365,-8.299 5.805,-18.735 1.315,-26.966 -5.7295,-10.506 -15.4327,-12.167 -20.4005,-2.427 -5.997,11.756 -4.8569,24.153 -14.1023,35.435 z"
            id="Fill 13"
            inkscape:connector-curvature="0"
            style="clip-rule:evenodd;fill:#221e1f;fill-rule:evenodd"/>
          <path
            d="m 70.8317,135.751 c -3.2018,2.142 -6.0952,4.953 -7.557,8.516 -1.4612,3.563 -1.2598,7.959 1.181,10.938 7.7813,9.496 29.9543,0.914 32.3213,-10.052 3.512,-16.273 -16.7197,-15.573 -25.9453,-9.402 z"
            id="Fill 15"
            inkscape:connector-curvature="0"
            style="clip-rule:evenodd;fill:#ef5d48;fill-rule:evenodd"/>
          <path
            d="m 85.2113,131.711 c -1.7756,3.909 -2.9661,8.503 -4.1122,11.135 -1.8904,4.343 -3.9023,8.46 -6.7547,12.271 -0.9666,1.292 -2.2405,2.535 -3.5879,3.781 9.7346,2.185 24.1383,-5.026 26.0202,-13.745 2.0843,-9.655 -4.1903,-13.335 -11.5654,-13.442 z"
            id="Fill 17"
            inkscape:connector-curvature="0"
            style="clip-rule:evenodd;fill:#ca4d3f;fill-rule:evenodd"/>
          <g
            id="Group 21">
            <mask
              height="71"
              width="81"
              y="124"
              x="11"
              maskUnits="userSpaceOnUse"
              mask-type="alpha"
              id="mask0">
              <path
                d="m 11.3096,124.442 h 80.3616 v 70.347 H 11.3096 Z"
                id="Clip 20"
                inkscape:connector-curvature="0"
                style="clip-rule:evenodd;fill:#ffffff;fill-rule:evenodd"/>
            </mask>
            <g
              id="g1123"
              mask="url(#mask0)">
              <path
                d="M 91.6712,170.814 C 66.6536,164.835 44.8713,148.53 34.9314,124.819 c -7.1394,-0.609 -13.1717,-0.524 -19.4555,0.579 -1.0839,0.19 -2.2476,0.421 -3.0033,1.221 -0.7263,0.769 -0.909,1.892 -1.0079,2.946 -0.5303,5.645 0.3738,11.326 1.582,16.866 2.7556,12.637 7.2204,25.124 15.0028,35.457 7.7824,10.333 19.192,18.358 32.0101,20.136 14.9752,2.076 23.613,-18.388 31.6116,-31.21 z"
                id="Fill 19"
                inkscape:connector-curvature="0"
                style="clip-rule:evenodd;fill:#fdc300;fill-rule:evenodd"/>
            </g>
          </g>
          <g
            id="Group 24">
            <path
              d="M 183.25,122.449 126.305,37.8366 C 112.686,40.144 101.293,49.4578 96.3301,62.342 l -2.556,6.6347 c 0,0 -8.4441,16.5742 -27.2224,51.1713 6.1881,3.869 14.4216,2.532 21.8621,2.165 1.21,-0.059 2.4557,-0.083 3.595,0.329 2.811,1.016 4.1171,4.523 3.4487,7.434 -0.6684,2.912 -2.8428,5.251 -5.2236,7.057 -5.4186,4.109 -9.9495,6.658 -16.7303,6.128 -4.9944,-0.39 -9.8605,-2.175 -13.9628,-5.044 -11.2622,21.815 -30.3675,63.953 -18.4053,102.33 7.5183,24.12 38.2796,31.436 46.1743,34.984 25.3402,11.39 54.2312,-5.638 61.5582,-13.977 25.232,-28.72 32.939,-58.728 30.009,-86.248 -2.929,-27.521 4.373,-52.857 4.373,-52.857 z"
              id="Fill 22"
              inkscape:connector-curvature="0"
              style="clip-rule:evenodd;fill:#fdc300;fill-rule:evenodd"/>
            <g
              id="Page 1">
              <g
                id="Fill 112">
                <path
                  d="m 42.1642,242.1 c 3.5152,11.376 18.8252,35.188 20.3357,51.091 1.5107,15.903 -5.2627,32.087 -0.9142,35.293 4.3476,3.206 19.1394,1.422 27.9116,-11.36 8.7721,-12.781 8.0908,-42.552 8.0908,-42.552 z"
                  id="Mask"
                  inkscape:connector-curvature="0"
                  style="clip-rule:evenodd;fill:#fdc200;fill-rule:evenodd"/>
                <mask
                  height="94"
                  width="85"
                  y="242"
                  x="22"
                  maskUnits="userSpaceOnUse"
                  mask-type="alpha"
                  id="mask1">
                  <path
                    d="m 42.1642,242.1 c 3.5152,11.376 18.8252,35.188 20.3357,51.091 1.5107,15.903 -5.2627,32.087 -0.9142,35.293 4.3476,3.206 19.1394,1.422 27.9116,-11.36 8.7721,-12.781 8.0908,-42.552 8.0908,-42.552 z"
                    id="Mask_2"
                    inkscape:connector-curvature="0"
                    style="clip-rule:evenodd;fill:#ffffff;fill-rule:evenodd"/>
                </mask>
                <g
                  id="g1131"
                  mask="url(#mask1)">
                  <path
                    d="m 86.8475,270.503 c 0,0 6.3169,44.944 -21.2331,59.979 0,0 17.116,3.974 27.5126,-20.154 10.397,-24.131 1.2122,-39.417 1.2122,-39.417 z"
                    id="Fill 112_2"
                    inkscape:connector-curvature="0"
                    style="clip-rule:evenodd;fill:#f6aa1f;fill-rule:evenodd"/>
                </g>
              </g>
              <g
                id="Group 6">
                <g
                  id="Combined Shape">
                  <path
                    d="m 94.8244,294.898 c 8.7266,23.86 -4.4859,34.228 1.6762,38.502 6.1624,4.275 19.0964,-2.503 24.1724,-17.592 L 112.894,294.885 88.967,279.81 Z"
                    id="Mask_3"
                    inkscape:connector-curvature="0"
                    style="clip-rule:evenodd;fill:#fdc200;fill-rule:evenodd"/>
                  <mask
                    height="60"
                    width="52"
                    y="279"
                    x="76"
                    maskUnits="userSpaceOnUse"
                    mask-type="alpha"
                    id="mask2">
                    <path
                      d="m 94.8244,294.898 c 8.7266,23.86 -4.4859,34.228 1.6762,38.502 6.1624,4.275 19.0964,-2.503 24.1724,-17.592 L 112.894,294.885 88.967,279.81 Z"
                      id="Mask_4"
                      inkscape:connector-curvature="0"
                      style="clip-rule:evenodd;fill:#ffffff;fill-rule:evenodd"/>
                  </mask>
                  <g
                    id="g1141"
                    mask="url(#mask2)">
                    <path
                      d="m 98.0216,334.035 c 5.1204,-0.621 17.9284,-14.951 18.0224,-29.384 l 10.692,7.923 c 0,0 -15.105,23.686 -22.356,22.9 -7.2516,-0.785 -6.3584,-1.439 -6.3584,-1.439 z"
                      id="Fill 7_2"
                      inkscape:connector-curvature="0"
                      style="clip-rule:evenodd;fill:#f6aa1f;fill-rule:evenodd"/>
                    <g
                      id="Combined Shape_2">
                      <path
                        id="path1138"
                        style="clip-rule:evenodd;mix-blend-mode:multiply;fill:#dbdbdb;fill-rule:evenodd"
                        d="m 92.4823,289.009 c -2.2465,-4.028 -4.5363,-8.983 -4.3508,-11.478 0,0 2.4021,6.427 8.8707,12.605 l 15.9648,3.98 8.212,20.465 c -4.993,14.622 -18.115,21.055 -24.4627,16.816 -2.5942,-1.732 -2.0191,-3.775 -1.061,-7.178 1.3861,-4.923 3.5739,-12.694 -1.8754,-26.492 l -2.9931,-9.141 z"
                        inkscape:connector-curvature="0"/>
                    </g>
                  </g>
                </g>
              </g>
              <g
                id="Group 20">
                <g
                  id="Fill 21">
                  <path
                    d="m 156.886,251.311 c -5.201,7.683 -11.712,22.601 -10.076,42.393 1.636,19.792 -5.355,35.974 -13.891,41.22 -9.164,5.631 -19.74,4.059 -20.309,0.631 -0.569,-3.428 6.824,-9.36 8.688,-37.48 l -1.021,-24.458 z"
                    id="Mask_5"
                    inkscape:connector-curvature="0"
                    style="clip-rule:evenodd;fill:#fcc201;fill-rule:evenodd"/>
                  <mask
                    height="100"
                    width="57"
                    y="244"
                    x="104"
                    maskUnits="userSpaceOnUse"
                    mask-type="alpha"
                    id="mask3">
                    <path
                      d="m 156.886,251.311 c -5.201,7.683 -11.712,22.601 -10.076,42.393 1.636,19.792 -5.355,35.974 -13.891,41.22 -9.164,5.631 -19.74,4.059 -20.309,0.631 -0.569,-3.428 6.824,-9.36 8.688,-37.48 l -1.021,-24.458 z"
                      id="Mask_6"
                      inkscape:connector-curvature="0"
                      style="clip-rule:evenodd;fill:#ffffff;fill-rule:evenodd"/>
                  </mask>
                  <g
                    id="g1152"
                    mask="url(#mask3)">
                    <path
                      d="m 139.246,314.817 c -4.698,16.497 -12.013,21.828 -22.562,23.725 0,0 22.477,4.144 26.488,-10.189 4.012,-14.332 7.773,-44.059 7.773,-44.059 0,0 21.503,-37.363 0.263,-18.625 -17.034,15.028 -7.264,32.65 -11.962,49.148 z"
                      id="Fill 21_2"
                      inkscape:connector-curvature="0"
                      style="clip-rule:evenodd;fill:#f6aa1f;fill-rule:evenodd"/>
                    <g
                      id="Path 26">
                      <path
                        id="path1149"
                        style="clip-rule:evenodd;mix-blend-mode:multiply;fill:#dbdbdb;fill-rule:evenodd"
                        d="m 134.699,269.904 c 0,0 5.396,20.249 8.04,25.718 2.644,5.469 5.02,44.07 -31.202,38.245 -0.755,-0.188 -2.454,-3.017 -2.454,-3.017 z"
                        inkscape:connector-curvature="0"/>
                    </g>
                  </g>
                </g>
              </g>
              <g
                id="Group 119">
                <path
                  d="m 111.677,243.328 c 0,0 -21.7181,10.666 -24.8483,26.085 -3.1294,15.419 20.8943,28.053 24.9563,37.535 1.441,3.364 -9.955,17.669 -3.811,21.459 6.019,3.713 20.385,-0.794 28.565,-15.034 8.699,-15.142 -6.128,-26.066 2.175,-47.263 z"
                  id="Fill 117"
                  inkscape:connector-curvature="0"
                  style="clip-rule:evenodd;fill:#fdc200;fill-rule:evenodd"/>
              </g>
              <g
                id="Group 122">
                <mask
                  height="71"
                  width="34"
                  y="263"
                  x="115"
                  maskUnits="userSpaceOnUse"
                  mask-type="alpha"
                  id="mask4">
                  <path
                    d="m 115.796,329.404 c 6.721,-1.143 15.168,-6.327 20.742,-16.031 8.7,-15.142 -6.126,-26.066 2.176,-47.263 l -1.339,-1.129 -5.727,-1.427 -16.385,65.717 z"
                    id="Clip 121"
                    inkscape:connector-curvature="0"
                    style="clip-rule:evenodd;fill:#ffffff;fill-rule:evenodd"/>
                </mask>
                <g
                  id="g1161"
                  mask="url(#mask4)">
                  <path
                    d="m 115.263,329.271 c 11.349,-6.342 20.395,-19.214 15.143,-35.89 -4.638,-14.726 8.868,-27.926 8.868,-27.926 l 3.181,36.29 -10.841,25.646 z"
                    id="Fill 120"
                    inkscape:connector-curvature="0"
                    style="clip-rule:evenodd;fill:#f6aa1f;fill-rule:evenodd"/>
                </g>
              </g>
            </g>
          </g>
          <path
            d="m 135.852,128.276 c -2.068,4.628 0.009,10.056 4.64,12.123 4.63,2.067 10.061,-0.009 12.129,-4.637 2.069,-4.628 -0.009,-10.055 -4.639,-12.123 -4.631,-2.067 -10.062,0.009 -12.13,4.637 z"
            id="Fill 25"
            inkscape:connector-curvature="0"
            style="clip-rule:evenodd;fill:#cd9c00;fill-rule:evenodd"/>
          <path
            d="m 106.917,55.8936 c 0,0 8.651,51.6174 51.037,69.0324 17.543,7.209 21.047,19.199 20.361,21.747 0,0 2.086,-16.808 -0.399,-23.646 0,0 -48.854,-21.358 -60.384,-48.5184 l -7.126,-28.5488 -11.3007,14.174 c 0,0 1.6187,2.9001 7.8117,-4.2402 z"
            id="Fill 27"
            inkscape:connector-curvature="0"
            style="clip-rule:evenodd;fill:#f5a921;fill-rule:evenodd"/>
          <path
            d="m 156,132.951 c 2.466,-5.518 -0.01,-11.989 -5.532,-14.454 -5.521,-2.464 -11.996,0.011 -14.462,5.529 -2.466,5.518 0.011,11.989 5.531,14.454 5.522,2.465 11.997,-0.011 14.463,-5.529 z"
            id="Fill 29"
            inkscape:connector-curvature="0"
            style="clip-rule:evenodd;fill:#128377;fill-rule:evenodd"/>
          <path
            d="m 150.378,118.555 c 4.697,2.097 7.19,7.079 6.346,11.923 -3.048,3.861 -8.422,5.33 -13.12,3.234 -4.698,-2.098 -7.19,-7.079 -6.347,-11.924 3.048,-3.86 8.423,-5.33 13.121,-3.233 z"
            id="Fill 31"
            inkscape:connector-curvature="0"
            style="clip-rule:evenodd;fill:#00a69c;fill-rule:evenodd"/>
          <g
            id="Group 35">
            <path
              d="m 95.4417,64.6476 c 0,0 12.9933,-49.8664 61.2613,-37.3392 48.268,12.5276 52.339,43.2031 48.8,62.4812 -3.539,19.2784 -8.738,20.0884 -8.738,20.0884 0,0 6.784,7.539 3.896,14.001 -2.888,6.462 -6.142,14.773 -20.84,15.664 l -1.906,-16.516 c 0,0 -74.288,-23.7206 -67.509,-77.0672 0,0 -3.253,12.0774 -14.9643,18.6878 z"
              id="Fill 33"
              inkscape:connector-curvature="0"
              style="clip-rule:evenodd;fill:#a97c4f;fill-rule:evenodd"/>
          </g>
          <g
            id="Group 38">
            <mask
              height="43"
              width="64"
              y="0"
              x="132"
              maskUnits="userSpaceOnUse"
              mask-type="alpha"
              id="mask5">
              <path
                d="m 132.251,0.218567 h 63.631 V 42.7836 h -63.631 z"
                id="Clip 37"
                inkscape:connector-curvature="0"
                style="clip-rule:evenodd;fill:#ffffff;fill-rule:evenodd"/>
            </mask>
            <g
              id="g1175"
              mask="url(#mask5)">
              <path
                d="m 198.85,29.0525 c 1.756,-5.8498 -4.028,-11.9401 -10.129,-12.303 -6.1,-0.3623 -11.74,3.4414 -15.758,8.0431 5.422,-5.0745 8.289,-12.7493 7.523,-20.13361 -0.128,-1.23648 -0.392,-2.54322 -1.259,-3.43369 -1.24,-1.2724905 -3.387,-1.2587205 -4.946,-0.405683 -1.559,0.852683 -2.643,2.357153 -3.575,3.869383 -3.27,5.30713 -5.336,11.3511 -5.997,17.5491 -1.42,-6.2538 -5.041,-11.9846 -10.08,-15.95495 -1.128,-0.88905 -2.387,-1.71666 -3.815,-1.88155 -3.347,-0.38768 -6.085,3.21231 -6.022,6.5796 0.063,3.3677 2.067,6.365 4.149,9.0134 2.994,3.8083 6.313,7.3613 9.909,10.6086 -6.821,-2.4518 -14.418,-2.6908 -21.38,-0.6719 -2.409,0.6987 -5.139,2.1877 -5.218,4.6935 -0.092,2.9609 3.439,4.4879 6.314,5.2061 8.191,2.0464 16.757,4.1 24.984,2.199 6.899,-1.5945 10.349,-6.2926 16.03,-9.721 5.413,-3.2667 13.137,-3.9421 19.27,-3.2564 z"
                id="Fill 36"
                inkscape:connector-curvature="0"
                style="clip-rule:evenodd;fill:#f15a2b;fill-rule:evenodd"/>
            </g>
          </g>
          <path
            d="m 179.313,23.1415 c -3.916,1.5518 -7.012,4.607 -9.967,7.6071 3.683,-4.4343 5.947,-10.0281 6.383,-15.7748 0.086,-1.1359 -0.003,-2.4885 -0.967,-3.0965 -1.315,-0.8301 -2.944,0.4268 -3.901,1.6527 -3.203,4.1067 -5.325,9.048 -6.099,14.1973 -1.085,-5.1228 -4.106,-9.8117 -8.324,-12.9188 -0.619,-0.4565 -1.338,-0.8989 -2.102,-0.8082 -1.003,0.1197 -1.693,1.1624 -1.752,2.1708 -0.06,1.0076 0.356,1.9775 0.79,2.8896 2.14,4.5052 4.919,8.7069 8.228,12.4403 -4.785,-2.4062 -10.43,-3.0562 -15.637,-1.801 -1.442,0.3477 -2.907,0.871 -3.937,1.9366 -1.031,1.0652 -1.495,2.7971 -0.732,4.0685 3.765,6.2823 20.953,5.192 26.622,2.4207 3.015,-1.4734 5.536,-3.8489 8.33,-5.6768 4.614,-3.0177 9.828,-4.7559 14.592,-7.4181 -2.54,-3.3169 -7.914,-3.3215 -11.527,-1.8894 z"
            id="Fill 39"
            inkscape:connector-curvature="0"
            style="clip-rule:evenodd;fill:#fac011;fill-rule:evenodd"/>
          <path
            d="m 122.072,86.2164 c -0.004,-0.0869 -0.01,-0.1727 -0.013,-0.2596 0.278,0.4509 0.566,0.8944 0.858,1.334 -0.286,-0.3545 -0.566,-0.7139 -0.845,-1.0744 z"
            id="Fill 41"
            inkscape:connector-curvature="0"
            style="clip-rule:evenodd;fill:#93603e;fill-rule:evenodd"/>
          <g
            id="Group 45">
            <path
              d="m 169.966,112.239 c 4.139,0.288 9.309,0.358 11.624,-3.082 6.748,-10.0282 -15.884,-13.9961 -20.021,-14.3057 10.123,-9.227 18.657,-25.2395 15.869,-38.6459 -1.902,-9.1451 -0.589,-13.3534 -5.255,-21.4456 28.5,14.8091 36.259,39.0229 33.32,55.0297 -3.539,19.2785 -8.738,20.0885 -8.738,20.0885 0,0 8.173,4.703 5.752,15.474 -1.553,6.905 -4.958,14.126 -22.696,14.191 l -1.905,-16.516 c 0,0 -20.393,-6.517 -38.835,-20.39 9.174,5.637 20.033,8.847 30.885,9.602 z"
              id="Fill 43"
              inkscape:connector-curvature="0"
              style="clip-rule:evenodd;fill:#93603e;fill-rule:evenodd"/>
          </g>
          <g
            id="Group 48">
            <path
              d="m 196.765,109.878 c 0,0 -6.519,-6.211 -25.4,-13.187 0,0 10.871,-1.8837 28.939,9.572 0,0 -0.321,2.067 -3.539,3.615 z"
              id="Fill 46"
              inkscape:connector-curvature="0"
              style="clip-rule:evenodd;fill:#774f37;fill-rule:evenodd"/>
          </g>
          <g
            id="Group 51">
            <mask
              height="11"
              width="19"
              y="123"
              x="177"
              maskUnits="userSpaceOnUse"
              mask-type="alpha"
              id="mask6">
              <path
                d="m 177.916,123.027 h 17.966 v 10.25 h -17.966 z"
                id="Clip 50"
                inkscape:connector-curvature="0"
                style="clip-rule:evenodd;fill:#ffffff;fill-rule:evenodd"/>
            </mask>
            <g
              id="g1187"
              mask="url(#mask6)">
              <path
                d="m 177.916,123.027 c 0,0 8.834,1.714 18.353,0.608 0,0 -5.563,8.285 -17.136,9.642 z"
                id="Fill 49"
                inkscape:connector-curvature="0"
                style="clip-rule:evenodd;fill:#774f37;fill-rule:evenodd"/>
            </g>
          </g>
        </g>
        <g
          id="Group 62">
          <g
            id="Group 55">
            <mask
              height="60"
              width="60"
              y="62"
              x="74"
              maskUnits="userSpaceOnUse"
              mask-type="alpha"
              id="mask7">
              <path
                d="M 95.3404,64.0897 C 82.6346,72.2949 74.8468,102.696 74.8468,102.696 l 8.1334,13.553 25.5118,5.716 25.011,-40.7773 c 0,0 -18.849,-18.738 -32.204,-18.7356 -2.1639,4e-4 -4.1864,0.4931 -5.9586,1.6376 z"
                id="Clip 54"
                inkscape:connector-curvature="0"
                style="clip-rule:evenodd;fill:#ffffff;fill-rule:evenodd"/>
            </mask>
            <g
              id="g1194"
              mask="url(#mask7)">
              <path
                d="M 117.735,101.844 C 123.031,89.9508 117.712,76.0029 105.856,70.6912 93.9994,65.3789 80.0944,70.7136 74.7987,82.6065 69.5028,94.4997 74.8214,108.447 86.678,113.76 c 11.8563,5.311 25.761,-0.024 31.057,-11.916 z"
                id="Fill 53"
                inkscape:connector-curvature="0"
                style="clip-rule:evenodd;fill:#f6ab21;fill-rule:evenodd"/>
            </g>
          </g>
          <g
            id="Group 58">
            <mask
              height="60"
              width="60"
              y="62"
              x="74"
              maskUnits="userSpaceOnUse"
              mask-type="alpha"
              id="mask8">
              <path
                d="M 95.3404,64.0897 C 82.6346,72.2949 74.8468,102.696 74.8468,102.696 l 8.1334,13.553 25.5118,5.716 25.011,-40.7773 c 0,0 -18.849,-18.738 -32.204,-18.7356 -2.1639,4e-4 -4.1864,0.4931 -5.9586,1.6376 z"
                id="Clip 57"
                inkscape:connector-curvature="0"
                style="clip-rule:evenodd;fill:#ffffff;fill-rule:evenodd"/>
            </mask>
            <g
              id="g1200"
              mask="url(#mask8)">
              <path
                d="m 103.461,65.9748 c 12.83,4.4737 16.685,16.9764 16.685,16.9764 0,0 1.407,3.4981 5.476,0.542 0,0 -2.995,7.201 -7.904,2.0579 0,0 -1.667,-12.6616 -15.143,-18.0619 0,0 -7.398,-3.7393 -18.7026,1.3906 0,0 9.8829,-6.2896 19.5886,-2.905 z"
                id="Fill 56"
                inkscape:connector-curvature="0"
                style="clip-rule:evenodd;fill:#221f1f;fill-rule:evenodd"/>
            </g>
          </g>
          <g
            id="Group 61">
            <mask
              height="60"
              width="60"
              y="62"
              x="74"
              maskUnits="userSpaceOnUse"
              mask-type="alpha"
              id="mask9">
              <path
                d="M 95.3404,64.0897 C 82.6346,72.2949 74.8468,102.696 74.8468,102.696 l 8.1334,13.553 25.5118,5.716 25.011,-40.7773 c 0,0 -18.849,-18.738 -32.204,-18.7356 -2.1639,4e-4 -4.1864,0.4931 -5.9586,1.6376 z"
                id="Clip 60"
                inkscape:connector-curvature="0"
                style="clip-rule:evenodd;fill:#ffffff;fill-rule:evenodd"/>
            </mask>
            <g
              id="g1206"
              mask="url(#mask9)">
              <path
                d="M 116.32,99.3604 C 121.616,87.4675 116.298,73.5196 104.441,68.208 92.5848,62.8957 78.6798,68.2304 73.3842,80.1232 c -5.296,11.8932 0.0226,25.8408 11.8793,31.1528 11.8563,5.312 25.7605,-0.023 31.0565,-11.9156 z"
                id="Fill 59"
                inkscape:connector-curvature="0"
                style="clip-rule:evenodd;fill:#ffffff;fill-rule:evenodd"/>
            </g>
          </g>
        </g>
        <g
          id="Group 72">
          <g
            id="Group 65">
            <mask
              height="48"
              width="45"
              y="66"
              x="74"
              maskUnits="userSpaceOnUse"
              mask-type="alpha"
              id="mask10">
              <path
                d="m 92.6638,66.4713 c -10.3136,9.5706 -16.8261,32.5552 -17.713,35.8237 2.4009,3.797 5.923,6.952 10.3541,8.918 11.9033,5.28 25.8631,-0.023 31.1791,-11.8441 5.317,-11.8209 -0.022,-25.6841 -11.925,-30.9639 -3.127,-1.3871 -6.3972,-2.0437 -9.614,-2.044 -0.7637,0 -1.5256,0.0373 -2.2812,0.1103 z"
                id="Clip 64"
                inkscape:connector-curvature="0"
                style="clip-rule:evenodd;fill:#ffffff;fill-rule:evenodd"/>
            </mask>
            <g
              id="g1213"
              mask="url(#mask10)">
              <path
                d="M 87.1134,97.4235 C 96.3487,94.7984 101.692,85.2356 99.0485,76.0645 96.4055,66.893 86.7761,61.5864 77.5407,64.2115 68.3054,66.8366 62.9621,76.3994 65.6055,85.5709 c 2.6434,9.1715 12.2729,14.4781 21.5079,11.8526 z"
                id="Fill 63"
                inkscape:connector-curvature="0"
                style="clip-rule:evenodd;fill:#3dabdf;fill-rule:evenodd"/>
            </g>
          </g>
          <g
            id="Group 68">
            <mask
              height="48"
              width="45"
              y="66"
              x="74"
              maskUnits="userSpaceOnUse"
              mask-type="alpha"
              id="mask11">
              <path
                d="m 92.6638,66.4713 c -10.3136,9.5706 -16.8261,32.5552 -17.713,35.8237 2.4009,3.797 5.923,6.952 10.3541,8.918 11.9033,5.28 25.8631,-0.023 31.1791,-11.8441 5.317,-11.8209 -0.022,-25.6841 -11.925,-30.9639 -3.127,-1.3871 -6.3972,-2.0437 -9.614,-2.044 -0.7637,0 -1.5256,0.0373 -2.2812,0.1103 z"
                id="Clip 67"
                inkscape:connector-curvature="0"
                style="clip-rule:evenodd;fill:#ffffff;fill-rule:evenodd"/>
            </mask>
            <g
              id="g1219"
              mask="url(#mask11)">
              <path
                d="M 85.7459,92.6789 C 92.3425,90.8038 96.1593,83.9732 94.2715,77.4223 92.383,70.8714 85.5048,67.0809 78.9083,68.956 c -6.5966,1.8752 -10.4135,8.7057 -8.5253,15.2567 1.8882,6.5509 8.7667,10.3414 15.3629,8.4662 z"
                id="Fill 66"
                inkscape:connector-curvature="0"
                style="clip-rule:evenodd;fill:#221e1f;fill-rule:evenodd"/>
            </g>
          </g>
          <g
            id="Group 71">
            <mask
              height="48"
              width="45"
              y="66"
              x="74"
              maskUnits="userSpaceOnUse"
              mask-type="alpha"
              id="mask12">
              <path
                d="m 92.6638,66.4713 c -10.3136,9.5706 -16.8261,32.5552 -17.713,35.8237 2.4009,3.797 5.923,6.952 10.3541,8.918 11.9033,5.28 25.8631,-0.023 31.1791,-11.8441 5.317,-11.8209 -0.022,-25.6841 -11.925,-30.9639 -3.127,-1.3871 -6.3972,-2.0437 -9.614,-2.044 -0.7637,0 -1.5256,0.0373 -2.2812,0.1103 z"
                id="Clip 70"
                inkscape:connector-curvature="0"
                style="clip-rule:evenodd;fill:#ffffff;fill-rule:evenodd"/>
            </mask>
            <g
              id="g1225"
              mask="url(#mask12)">
              <path
                d="m 98.221,91.8883 c 2.921,-0.8304 4.611,-3.8557 3.775,-6.7565 -0.836,-2.9012 -3.8818,-4.5796 -6.8029,-3.7495 -2.9217,0.8307 -4.6121,3.8556 -3.7756,6.7565 0.8361,2.9015 3.8821,4.5799 6.8035,3.7495 z"
                id="Fill 69"
                inkscape:connector-curvature="0"
                style="clip-rule:evenodd;fill:#ffffff;fill-rule:evenodd"/>
            </g>
          </g>
        </g>
        <g
          id="Group 101">
          <path
            d="m 178.552,153.387 c 0,0 2.807,-24.228 7.158,-29.509 0,0 -4.362,-0.066 -7.671,-0.866 z"
            id="Fill 73"
            inkscape:connector-curvature="0"
            style="clip-rule:evenodd;fill:#f5a921;fill-rule:evenodd"/>
          <g
            id="Group 77">
            <path
              d="m 166.365,64.9591 c 2.557,11.856 9.316,24.028 20.856,27.77 3.903,-4.467 7.335,-9.3447 10.221,-14.5272 0.422,-0.7586 0.844,-1.5687 0.825,-2.4367 -0.024,-1.0542 -0.689,-1.972 -1.335,-2.8055 -4.847,-6.2529 -10.23,-12.0679 -15.088,-18.3112 -3.971,-5.1052 -7.922,-16.0977 -12.941,-19.2429 -5.423,7.8997 -4.467,20.6131 -2.538,29.5535 z"
              id="Fill 75"
              inkscape:connector-curvature="0"
              style="clip-rule:evenodd;fill:#93603e;fill-rule:evenodd"/>
          </g>
          <g
            id="Group 80">
            <path
              d="m 189.967,15.5687 c 11.234,-6.13613 26.407,-8.02883 36.032,0.4085 6.024,5.2809 8.591,13.4463 10.064,21.3201 1.41,7.5323 2.061,15.3382 0.464,22.8331 -1.596,7.4949 -5.659,14.6926 -12.097,18.8524 -14.807,9.5675 -43.327,0.9088 -52.804,-13.6364 -11.441,-17.5587 2.403,-41.0713 18.341,-49.7777 z"
              id="Fill 78"
              inkscape:connector-curvature="0"
              style="clip-rule:evenodd;fill:#a97c4f;fill-rule:evenodd"/>
          </g>
          <g
            id="Group 83">
            <path
              d="m 171.646,65.3011 c 9.476,14.5824 37.992,23.2632 52.797,13.6712 6.438,-4.1704 10.5,-11.3864 12.096,-18.9008 1.597,-7.5141 0.945,-15.3396 -0.464,-22.8911 -0.525,-2.815 -1.191,-5.6665 -2.102,-8.4119 -1.868,9.0392 -7.546,17.4003 -15.749,21.5698 -3.998,2.0319 -8.838,3.0242 -12.957,1.2509 3.063,5.8356 -1.805,13.0195 -7.689,15.967 -8.246,4.13 -18.779,3.0126 -26.107,-2.5353 0.059,0.0933 0.114,0.1875 0.175,0.2802 z"
              id="Fill 81"
              inkscape:connector-curvature="0"
              style="clip-rule:evenodd;fill:#764f35;fill-rule:evenodd"/>
          </g>
          <path
            d="m 93.1481,170.954 c 4.2009,3.783 7.5799,8.376 10.8409,12.993 0.584,-6.696 -3,-13.406 -8.4787,-17.303 -3.3672,-2.395 -14.8095,-3.253 -24.9422,-4.828 7.944,5.405 19.3869,6.263 22.58,9.138 z"
            id="Fill 84"
            inkscape:connector-curvature="0"
            style="clip-rule:evenodd;fill:#f5a921;fill-rule:evenodd"/>
          <path
            d="m 60.7323,106.654 c -1.4929,-2.274 -4.7629,-3.167 -7.205,-1.968 -2.442,1.2 -3.7332,4.333 -2.8444,6.905 0.236,0.682 0.6143,1.33 1.1739,1.786 1.6928,1.381 4.5333,0.342 5.4246,-1.652 1.0682,0.544 1.9859,1.38 2.6282,2.391 -2.0729,0.473 -3.9547,1.734 -6.0774,1.865 -3.2291,0.2 -6.2586,-2.653 -6.4628,-5.881 -0.2042,-3.228 2.2545,-6.351 5.3938,-7.13 3.1401,-0.78 6.6462,0.698 8.4799,3.363"
            id="Fill 89"
            inkscape:connector-curvature="0"
            style="clip-rule:evenodd;fill:#cd7d00;fill-rule:evenodd"/>
          <path
            d="m 48.6043,102.424 c -0.1985,1.514 0.1498,3.094 0.9662,4.385 -0.259,0.521 -0.7302,0.932 -1.2816,1.118 -1.0224,-1.62 -0.9888,-3.842 0.0816,-5.43"
            id="Fill 91"
            inkscape:connector-curvature="0"
            style="clip-rule:evenodd;fill:#cd7d00;fill-rule:evenodd"/>
          <path
            d="m 12.1119,138.095 c -1.7338,-5.487 -2.83875,-11.173 -3.28597,-16.909 2.18027,0.682 4.11297,0.793 6.39317,0.931 -0.7612,-3.143 0.6991,-6.695 3.451,-8.395 0.9721,-0.6 2.1615,-0.984 3.2601,-0.671 1.0987,0.313 1.9768,1.516 1.6261,2.603 -0.4833,1.497 -2.8879,2.215 -2.5382,3.749 3.0066,-0.569 5.762,2.006 7.0259,4.792 1.5363,3.388 1.6264,7.599 -0.4861,10.662 -1.3434,1.948 -3.4085,3.255 -5.4203,4.501 -1.4625,0.906 -3.6099,1.712 -4.676,0.362"
            id="Fill 93"
            inkscape:connector-curvature="0"
            style="clip-rule:evenodd;fill:#fdc300;fill-rule:evenodd"/>
          <path
            d="M 31.7537,96.3958 20.9226,94.9609 c -1.779,-0.2355 -3.0416,-1.8833 -2.8059,-3.6622 l 1.4352,-10.8279 c 0.236,-1.7785 1.8843,-3.0406 3.6633,-2.8047 l 10.8311,1.4345 c 1.779,0.2359 3.0419,1.8837 2.8059,3.6621 L 35.4166,93.591 c -0.2357,1.7785 -1.8839,3.0407 -3.6629,2.8048 z"
            id="Fill 95"
            inkscape:connector-curvature="0"
            style="clip-rule:evenodd;fill:#ffffff;fill-rule:evenodd"/>
          <path
            d="m 20.9225,94.9607 -0.7824,2.2192 3.8038,-1.8187 z"
            id="Fill 97"
            inkscape:connector-curvature="0"
            style="clip-rule:evenodd;fill:#ffffff;fill-rule:evenodd"/>
          <path
            d="m 32.1028,83.0998 c -2.3781,-1.2491 -4.2917,1.3303 -4.2917,1.3303 0,0 -0.9944,-3.0388 -3.7968,-2.4017 -3.3492,0.761 -3.4693,4.0086 -1.7744,6.2207 1.1877,1.5503 4.4397,4.7146 4.4397,4.7146 0,0 3.9646,-2.2083 5.5154,-3.3959 2.3099,-1.7686 2.9479,-4.871 -0.0922,-6.468 z"
            id="Fill 99"
            inkscape:connector-curvature="0"
            style="clip-rule:evenodd;fill:#e5173f;fill-rule:evenodd"/>
          <path
            d="m 40.4161,194.789 c 0,0 37.0215,18.399 46.8937,16.665 9.8722,-1.734 13.9512,-6.814 13.9512,-6.814 0,0 -7.8955,3.691 -19.2942,1.845 -11.3987,-1.845 -48.748,-19.407 -48.748,-19.407 z"
            id="Path 3"
            inkscape:connector-curvature="0"
            style="clip-rule:evenodd;fill:#f5a921;fill-rule:evenodd"/>
        </g>
      </g>
    </g>
  </g>
</svg>
