<?xml version="1.0" encoding="UTF-8"?> <svg xmlns="http://www.w3.org/2000/svg" width="192" height="54" viewBox="0 0 192 54" fill="none"><path d="M70.578 36.333C68.0127 36.333 65.768 35.7903 63.844 34.705C61.92 33.6197 60.44 32.0657 59.404 30.043C58.368 28.0203 57.85 25.6523 57.85 22.939C57.85 20.2257 58.368 17.87 59.404 15.872C60.44 13.8493 61.92 12.2953 63.844 11.21C65.768 10.1247 68.0127 9.582 70.578 9.582C73.8093 9.582 76.5967 10.47 78.94 12.246C79.31 12.542 79.569 12.838 79.717 13.134C79.865 13.43 79.939 13.8 79.939 14.244C79.939 14.8853 79.754 15.4403 79.384 15.909C79.0387 16.353 78.607 16.575 78.089 16.575C77.7437 16.575 77.4353 16.538 77.164 16.464C76.9173 16.3653 76.6337 16.205 76.313 15.983C75.3263 15.3417 74.4137 14.8853 73.575 14.614C72.7363 14.318 71.836 14.17 70.874 14.17C68.506 14.17 66.7177 14.91 65.509 16.39C64.325 17.8453 63.733 20.0283 63.733 22.939C63.733 28.8097 66.1133 31.745 70.874 31.745C71.7867 31.745 72.65 31.6093 73.464 31.338C74.278 31.042 75.2277 30.5733 76.313 29.932C76.683 29.71 76.9913 29.562 77.238 29.488C77.4847 29.3893 77.7683 29.34 78.089 29.34C78.607 29.34 79.0387 29.5743 79.384 30.043C79.754 30.487 79.939 31.0297 79.939 31.671C79.939 32.115 79.8527 32.4973 79.68 32.818C79.532 33.114 79.2853 33.3977 78.94 33.669C76.5967 35.445 73.8093 36.333 70.578 36.333ZM94.7292 17.389C98.9472 17.389 101.056 19.942 101.056 25.048V33.595C101.056 34.409 100.797 35.0503 100.279 35.519C99.7858 35.9877 99.1075 36.222 98.2442 36.222C97.3808 36.222 96.7025 35.9877 96.2092 35.519C95.7158 35.0503 95.4692 34.409 95.4692 33.595V24.974C95.4692 23.8887 95.2348 23.087 94.7662 22.569C94.3222 22.0263 93.6192 21.755 92.6572 21.755C91.4978 21.755 90.5605 22.125 89.8452 22.865C89.1545 23.605 88.8092 24.5917 88.8092 25.825V33.595C88.8092 34.409 88.5625 35.0503 88.0692 35.519C87.5758 35.9877 86.8975 36.222 86.0342 36.222C85.1708 36.222 84.4802 35.9877 83.9622 35.519C83.4688 35.0503 83.2222 34.409 83.2222 33.595V12.283C83.2222 11.5183 83.4812 10.9017 83.9992 10.433C84.5418 9.96433 85.2448 9.73 86.1082 9.73C86.9222 9.73 87.5758 9.952 88.0692 10.396C88.5625 10.84 88.8092 11.432 88.8092 12.172V20.238C89.4505 19.3007 90.2768 18.5977 91.2882 18.129C92.2995 17.6357 93.4465 17.389 94.7292 17.389ZM108.039 36.222C107.225 36.222 106.547 36 106.004 35.556C105.486 35.112 105.227 34.4583 105.227 33.595V20.09C105.227 19.2267 105.498 18.573 106.041 18.129C106.584 17.685 107.25 17.463 108.039 17.463C108.828 17.463 109.482 17.685 110 18.129C110.543 18.573 110.814 19.2267 110.814 20.09V33.595C110.814 34.4583 110.543 35.112 110 35.556C109.482 36 108.828 36.222 108.039 36.222ZM108.039 14.503C107.052 14.503 106.275 14.2563 105.708 13.763C105.141 13.245 104.857 12.5543 104.857 11.691C104.857 10.8277 105.141 10.1493 105.708 9.656C106.275 9.16267 107.052 8.916 108.039 8.916C109.001 8.916 109.766 9.175 110.333 9.693C110.925 10.1863 111.221 10.8523 111.221 11.691C111.221 12.5543 110.937 13.245 110.37 13.763C109.803 14.2563 109.026 14.503 108.039 14.503ZM117.903 36.222C117.089 36.222 116.411 36 115.868 35.556C115.35 35.112 115.091 34.4583 115.091 33.595V12.357C115.091 11.4937 115.35 10.84 115.868 10.396C116.411 9.952 117.089 9.73 117.903 9.73C118.693 9.73 119.346 9.952 119.864 10.396C120.407 10.84 120.678 11.4937 120.678 12.357V33.595C120.678 34.4583 120.407 35.112 119.864 35.556C119.346 36 118.693 36.222 117.903 36.222ZM140.459 9.73C141.322 9.73 142.013 9.96433 142.531 10.433C143.073 10.9017 143.345 11.5183 143.345 12.283V33.595C143.345 34.3843 143.086 35.0257 142.568 35.519C142.074 35.9877 141.408 36.222 140.57 36.222C139.731 36.222 139.053 35.9877 138.535 35.519C138.041 35.0257 137.795 34.3843 137.795 33.595V33.299C137.252 34.2363 136.475 34.9763 135.464 35.519C134.477 36.037 133.355 36.296 132.097 36.296C130.543 36.296 129.149 35.9013 127.916 35.112C126.707 34.298 125.757 33.1757 125.067 31.745C124.401 30.2897 124.068 28.6247 124.068 26.75C124.068 24.8753 124.401 23.235 125.067 21.829C125.757 20.3983 126.707 19.3007 127.916 18.536C129.124 17.7713 130.518 17.389 132.097 17.389C133.33 17.389 134.44 17.648 135.427 18.166C136.438 18.684 137.215 19.4117 137.758 20.349V12.172C137.758 11.432 138.004 10.84 138.498 10.396C138.991 9.952 139.645 9.73 140.459 9.73ZM133.725 32.041C135.032 32.041 136.031 31.597 136.722 30.709C137.437 29.7963 137.795 28.5013 137.795 26.824C137.795 25.1467 137.437 23.864 136.722 22.976C136.031 22.088 135.032 21.644 133.725 21.644C132.417 21.644 131.406 22.088 130.691 22.976C129.975 23.8393 129.618 25.0973 129.618 26.75C129.618 28.4273 129.975 29.7347 130.691 30.672C131.406 31.5847 132.417 32.041 133.725 32.041Z" fill="#3B4757"></path><path d="M150.459 36.222C149.645 36.222 148.967 36 148.424 35.556C147.906 35.112 147.647 34.4583 147.647 33.595V20.09C147.647 19.2267 147.918 18.573 148.461 18.129C149.004 17.685 149.67 17.463 150.459 17.463C151.248 17.463 151.902 17.685 152.42 18.129C152.963 18.573 153.234 19.2267 153.234 20.09V33.595C153.234 34.4583 152.963 35.112 152.42 35.556C151.902 36 151.248 36.222 150.459 36.222ZM150.459 14.503C149.472 14.503 148.695 14.2563 148.128 13.763C147.561 13.245 147.277 12.5543 147.277 11.691C147.277 10.8277 147.561 10.1493 148.128 9.656C148.695 9.16267 149.472 8.916 150.459 8.916C151.421 8.916 152.186 9.175 152.753 9.693C153.345 10.1863 153.641 10.8523 153.641 11.691C153.641 12.5543 153.357 13.245 152.79 13.763C152.223 14.2563 151.446 14.503 150.459 14.503ZM166.872 36.185C166.009 36.185 165.306 35.926 164.763 35.408C164.245 34.89 163.986 34.1993 163.986 33.336V14.614H157.992C156.167 14.614 155.254 13.8247 155.254 12.246C155.254 10.692 156.167 9.915 157.992 9.915H175.752C177.578 9.915 178.49 10.692 178.49 12.246C178.49 13.8247 177.578 14.614 175.752 14.614H169.758V33.336C169.758 34.1993 169.499 34.89 168.981 35.408C168.463 35.926 167.76 36.185 166.872 36.185Z" fill="#46AADD"></path><g clip-path="url(#clip0)"><path fill-rule="evenodd" clip-rule="evenodd" d="M32.7286 40.0465C32.7123 40.0217 28.293 34.9667 24.9388 34.866C21.5815 34.765 16.4128 38.9274 11.9899 41.0373C7.7172 43.0756 5.54199 44.0967 5.54199 44.0967L6.39474 48C6.39474 48 13.4288 42.7254 19.4503 43.622C25.4718 44.5185 27.5501 46.9451 27.5501 46.9451C27.5501 46.9451 30.1346 42.7384 31.4401 41.4066C32.7785 40.0411 32.719 40.0352 32.719 40.0352" fill="#76BEBA"></path><path fill-rule="evenodd" clip-rule="evenodd" d="M35.7027 7.43729L37.6211 5.27458L40.2855 6.38224L38.8466 3.95607L40.6584 1.79336L37.9408 2.42631L36.3421 0L36.1821 2.79559L33.3047 3.48129L35.9688 4.53627L35.7027 7.43729Z" fill="#46AADD"></path><path fill-rule="evenodd" clip-rule="evenodd" d="M33.0919 16.6681C29.8894 21.6407 27.3634 22.2857 23.2867 22.9451C19.21 23.6045 18.251 23.7627 13.908 25.5824C9.56502 27.4021 8.63252 30.6989 8.63252 30.6989C8.63252 30.6989 11.0617 28.8277 14.1212 28.0088C16.043 27.4943 21.2077 26.8833 21.4216 27.745C21.6831 28.7989 18.8451 31.8783 15.0803 35.8681C10.2427 40.995 5.22209 43.3054 5.22209 43.3054L0 21.4681C0 21.4681 0.719382 18.6462 4.68933 15.8242C9.51554 12.3937 16.466 14.7165 16.466 14.7165C16.466 14.7165 16.5726 14.9538 16.6793 14.0308C16.786 13.1078 18.145 7.62198 23.0738 5.5912C28.0026 3.56042 33.8914 5.48571 33.8914 5.48571L35.7029 9.60001L37.0884 7.91188C37.0884 7.91188 35.7615 12.5231 33.0919 16.6681ZM24.8055 13.134C24.0053 13.1303 23.2219 13.3608 22.5546 13.7961C21.8874 14.2315 21.3663 14.8521 21.0574 15.5795C20.7486 16.3069 20.6658 17.1082 20.8196 17.882C20.9735 18.6558 21.357 19.3671 21.9215 19.926C22.4861 20.4848 23.2063 20.8659 23.991 21.0211C24.7756 21.1763 25.5894 21.0985 26.3291 20.7976C27.0688 20.4968 27.7013 19.9863 28.1463 19.331C28.5913 18.6757 28.8288 17.905 28.8288 17.1165C28.8301 16.5947 28.727 16.0778 28.5255 15.5953C28.324 15.1128 28.028 14.6741 27.6544 14.3043C27.2808 13.9345 26.8369 13.6408 26.3481 13.44C25.8593 13.2392 25.3351 13.1352 24.8055 13.134Z" fill="#46AADD"></path><path fill-rule="evenodd" clip-rule="evenodd" d="M36.5025 11.4989C36.5025 11.4989 47.0002 34.866 47.0002 35.0769C47.0002 35.2879 45.4548 34.523 40.4991 35.6571C35.5433 36.7912 33.1986 39.5604 33.1986 39.5604C33.1986 39.5604 29.9175 34.7041 30.6408 28.7472C31.3069 23.2615 35.7565 20.2549 36.5025 11.4989Z" fill="#FFAF5F"></path></g><path d="M60.5283 42.583C61.3083 42.583 61.9563 42.781 62.4723 43.177C62.9883 43.573 63.3363 44.11 63.5163 44.788H62.4273C62.2773 44.404 62.0373 44.101 61.7073 43.879C61.3833 43.651 60.9843 43.537 60.5103 43.537C60.1323 43.537 59.7933 43.63 59.4933 43.816C59.1993 44.002 58.9653 44.269 58.7913 44.617C58.6233 44.959 58.5393 45.361 58.5393 45.823C58.5393 46.279 58.6233 46.681 58.7913 47.029C58.9653 47.371 59.1993 47.635 59.4933 47.821C59.7933 48.007 60.1323 48.1 60.5103 48.1C60.9843 48.1 61.3833 47.989 61.7073 47.767C62.0373 47.539 62.2773 47.236 62.4273 46.858H63.5163C63.3363 47.536 62.9883 48.073 62.4723 48.469C61.9563 48.859 61.3083 49.054 60.5283 49.054C59.9283 49.054 59.3973 48.919 58.9353 48.649C58.4733 48.373 58.1163 47.992 57.8643 47.506C57.6123 47.014 57.4863 46.453 57.4863 45.823C57.4863 45.193 57.6123 44.635 57.8643 44.149C58.1163 43.657 58.4733 43.273 58.9353 42.997C59.3973 42.721 59.9283 42.583 60.5283 42.583ZM68.3289 47.623H65.6469L65.1609 49H64.0629L66.4029 42.745H67.5819L69.9129 49H68.8149L68.3289 47.623ZM68.0409 46.831L66.9879 43.861L65.9349 46.831H68.0409ZM74.0137 49L72.4297 46.462H71.7007V49H70.6747V42.646H72.9157C73.6417 42.646 74.1907 42.823 74.5627 43.177C74.9407 43.531 75.1297 43.999 75.1297 44.581C75.1297 45.079 74.9887 45.487 74.7067 45.805C74.4307 46.123 74.0287 46.327 73.5007 46.417L75.1657 49H74.0137ZM71.7007 45.733H72.8347C73.6627 45.733 74.0767 45.367 74.0767 44.635C74.0767 44.287 73.9747 44.017 73.7707 43.825C73.5727 43.627 73.2607 43.528 72.8347 43.528H71.7007V45.733ZM77.0796 42.646V49H76.0536V42.646H77.0796ZM83.4602 49H82.4342L79.3472 44.311V49H78.3212V42.655H79.3472L82.4342 47.362V42.655H83.4602V49ZM87.6091 42.592C88.3651 42.592 88.9951 42.778 89.4991 43.15C90.0031 43.522 90.3361 44.029 90.4981 44.671H89.4181C89.2801 44.329 89.0521 44.056 88.7341 43.852C88.4221 43.648 88.0501 43.546 87.6181 43.546C87.2221 43.546 86.8651 43.639 86.5471 43.825C86.2351 44.011 85.9891 44.275 85.8091 44.617C85.6351 44.959 85.5481 45.361 85.5481 45.823C85.5481 46.309 85.6381 46.726 85.8181 47.074C85.9981 47.422 86.2501 47.689 86.5741 47.875C86.9041 48.055 87.2851 48.145 87.7171 48.145C88.2451 48.145 88.6981 47.983 89.0761 47.659C89.4541 47.329 89.6821 46.879 89.7601 46.309H87.4291V45.553H90.6241V46.534C90.5521 47.002 90.3841 47.428 90.1201 47.812C89.8621 48.19 89.5171 48.493 89.0851 48.721C88.6591 48.949 88.1701 49.063 87.6181 49.063C87.0001 49.063 86.4541 48.925 85.9801 48.649C85.5061 48.373 85.1401 47.992 84.8821 47.506C84.6241 47.014 84.4951 46.453 84.4951 45.823C84.4951 45.193 84.6241 44.635 84.8821 44.149C85.1401 43.657 85.5031 43.276 85.9711 43.006C86.4451 42.73 86.9911 42.592 87.6091 42.592ZM97.5254 42.646V43.474H94.7984V45.445H97.0484V46.237H94.7984V49H93.7724V42.646H97.5254ZM101.382 42.565C101.97 42.565 102.501 42.703 102.975 42.979C103.455 43.255 103.83 43.642 104.1 44.14C104.376 44.632 104.514 45.19 104.514 45.814C104.514 46.438 104.376 46.999 104.1 47.497C103.83 47.989 103.455 48.376 102.975 48.658C102.501 48.934 101.97 49.072 101.382 49.072C100.788 49.072 100.251 48.934 99.7714 48.658C99.2974 48.376 98.9224 47.989 98.6464 47.497C98.3704 46.999 98.2324 46.438 98.2324 45.814C98.2324 45.19 98.3704 44.632 98.6464 44.14C98.9224 43.642 99.2974 43.255 99.7714 42.979C100.251 42.703 100.788 42.565 101.382 42.565ZM101.382 43.519C100.974 43.519 100.611 43.612 100.293 43.798C99.9754 43.984 99.7264 44.251 99.5464 44.599C99.3724 44.947 99.2854 45.352 99.2854 45.814C99.2854 46.276 99.3724 46.681 99.5464 47.029C99.7264 47.377 99.9754 47.644 100.293 47.83C100.611 48.016 100.974 48.109 101.382 48.109C101.784 48.109 102.141 48.016 102.453 47.83C102.771 47.644 103.017 47.377 103.191 47.029C103.371 46.681 103.461 46.276 103.461 45.814C103.461 45.352 103.371 44.947 103.191 44.599C103.017 44.251 102.771 43.984 102.453 43.798C102.141 43.612 101.784 43.519 101.382 43.519ZM108.889 49L107.305 46.462H106.576V49H105.55V42.646H107.791C108.517 42.646 109.066 42.823 109.438 43.177C109.816 43.531 110.005 43.999 110.005 44.581C110.005 45.079 109.864 45.487 109.582 45.805C109.306 46.123 108.904 46.327 108.376 46.417L110.041 49H108.889ZM106.576 45.733H107.71C108.538 45.733 108.952 45.367 108.952 44.635C108.952 44.287 108.85 44.017 108.646 43.825C108.448 43.627 108.136 43.528 107.71 43.528H106.576V45.733ZM117.835 42.646L115.72 46.687V49H114.685V46.687L112.561 42.646H113.749L115.207 45.589L116.665 42.646H117.835ZM121.544 42.565C122.132 42.565 122.663 42.703 123.137 42.979C123.617 43.255 123.992 43.642 124.262 44.14C124.538 44.632 124.676 45.19 124.676 45.814C124.676 46.438 124.538 46.999 124.262 47.497C123.992 47.989 123.617 48.376 123.137 48.658C122.663 48.934 122.132 49.072 121.544 49.072C120.95 49.072 120.413 48.934 119.933 48.658C119.459 48.376 119.084 47.989 118.808 47.497C118.532 46.999 118.394 46.438 118.394 45.814C118.394 45.19 118.532 44.632 118.808 44.14C119.084 43.642 119.459 43.255 119.933 42.979C120.413 42.703 120.95 42.565 121.544 42.565ZM121.544 43.519C121.136 43.519 120.773 43.612 120.455 43.798C120.137 43.984 119.888 44.251 119.708 44.599C119.534 44.947 119.447 45.352 119.447 45.814C119.447 46.276 119.534 46.681 119.708 47.029C119.888 47.377 120.137 47.644 120.455 47.83C120.773 48.016 121.136 48.109 121.544 48.109C121.946 48.109 122.303 48.016 122.615 47.83C122.933 47.644 123.179 47.377 123.353 47.029C123.533 46.681 123.623 46.276 123.623 45.814C123.623 45.352 123.533 44.947 123.353 44.599C123.179 44.251 122.933 43.984 122.615 43.798C122.303 43.612 121.946 43.519 121.544 43.519ZM126.693 42.646V46.417C126.693 46.981 126.816 47.401 127.062 47.677C127.314 47.953 127.665 48.091 128.115 48.091C128.559 48.091 128.904 47.953 129.15 47.677C129.402 47.401 129.528 46.981 129.528 46.417V42.646H130.554V46.417C130.554 47.287 130.329 47.947 129.879 48.397C129.429 48.841 128.835 49.063 128.097 49.063C127.365 49.063 126.777 48.841 126.333 48.397C125.889 47.947 125.667 47.287 125.667 46.417V42.646H126.693ZM135.089 49L133.505 46.462H132.776V49H131.75V42.646H133.991C134.717 42.646 135.266 42.823 135.638 43.177C136.016 43.531 136.205 43.999 136.205 44.581C136.205 45.079 136.064 45.487 135.782 45.805C135.506 46.123 135.104 46.327 134.576 46.417L136.241 49H135.089ZM132.776 45.733H133.91C134.738 45.733 135.152 45.367 135.152 44.635C135.152 44.287 135.05 44.017 134.846 43.825C134.648 43.627 134.336 43.528 133.91 43.528H132.776V45.733ZM142.073 42.583C142.853 42.583 143.501 42.781 144.017 43.177C144.533 43.573 144.881 44.11 145.061 44.788H143.972C143.822 44.404 143.582 44.101 143.252 43.879C142.928 43.651 142.529 43.537 142.055 43.537C141.677 43.537 141.338 43.63 141.038 43.816C140.744 44.002 140.51 44.269 140.336 44.617C140.168 44.959 140.084 45.361 140.084 45.823C140.084 46.279 140.168 46.681 140.336 47.029C140.51 47.371 140.744 47.635 141.038 47.821C141.338 48.007 141.677 48.1 142.055 48.1C142.529 48.1 142.928 47.989 143.252 47.767C143.582 47.539 143.822 47.236 143.972 46.858H145.061C144.881 47.536 144.533 48.073 144.017 48.469C143.501 48.859 142.853 49.054 142.073 49.054C141.473 49.054 140.942 48.919 140.48 48.649C140.018 48.373 139.661 47.992 139.409 47.506C139.157 47.014 139.031 46.453 139.031 45.823C139.031 45.193 139.157 44.635 139.409 44.149C139.661 43.657 140.018 43.273 140.48 42.997C140.942 42.721 141.473 42.583 142.073 42.583ZM151.134 42.646V49H150.099V46.147H147.111V49H146.085V42.646H147.111V45.31H150.099V42.646H151.134ZM153.404 42.646V49H152.378V42.646H153.404ZM155.671 48.199H157.867V49H154.645V42.646H155.671V48.199ZM164.125 45.814C164.125 46.456 163.993 47.017 163.729 47.497C163.471 47.971 163.09 48.34 162.586 48.604C162.088 48.868 161.491 49 160.795 49H158.671V42.646H160.795C161.491 42.646 162.088 42.778 162.586 43.042C163.09 43.3 163.471 43.666 163.729 44.14C163.993 44.614 164.125 45.172 164.125 45.814ZM160.714 48.073C161.476 48.073 162.061 47.875 162.469 47.479C162.877 47.083 163.081 46.528 163.081 45.814C163.081 45.1 162.877 44.545 162.469 44.149C162.061 43.753 161.476 43.555 160.714 43.555H159.697V48.073H160.714ZM168.496 49L166.912 46.462H166.183V49H165.157V42.646H167.398C168.124 42.646 168.673 42.823 169.045 43.177C169.423 43.531 169.612 43.999 169.612 44.581C169.612 45.079 169.471 45.487 169.189 45.805C168.913 46.123 168.511 46.327 167.983 46.417L169.648 49H168.496ZM166.183 45.733H167.317C168.145 45.733 168.559 45.367 168.559 44.635C168.559 44.287 168.457 44.017 168.253 43.825C168.055 43.627 167.743 43.528 167.317 43.528H166.183V45.733ZM171.562 43.474V45.4H173.902V46.192H171.562V48.163H174.172V49H170.536V42.646H174.172V43.474H171.562ZM180.307 49H179.281L176.194 44.311V49H175.168V42.655H176.194L179.281 47.362V42.655H180.307V49Z" fill="#333333"></path><defs><clipPath id="clip0"><rect width="47" height="48" fill="white"></rect></clipPath></defs></svg> 